<?xml version="1.0" encoding="utf-8"?>
<!-- Generator: Adobe Illustrator 27.5.0, SVG Export Plug-In . SVG Version: 6.00 Build 0)  -->
<svg version="1.1" xmlns="http://www.w3.org/2000/svg" xmlns:xlink="http://www.w3.org/1999/xlink" x="0px" y="0px"
	 viewBox="0 0 500 500" style="enable-background:new 0 0 500 500;" xml:space="preserve">
<g id="Background_Complete">
	<rect x="416.779" y="398.494" style="fill:#EBEBEB;" width="33.122" height="0.25"/>
	<rect x="322.527" y="401.208" style="fill:#EBEBEB;" width="8.693" height="0.25"/>
	<rect x="396.586" y="389.208" style="fill:#EBEBEB;" width="19.192" height="0.25"/>
	<rect x="52.459" y="390.888" style="fill:#EBEBEB;" width="43.193" height="0.25"/>
	<rect x="104.556" y="390.888" style="fill:#EBEBEB;" width="6.333" height="0.25"/>
	<rect x="131.471" y="395.111" style="fill:#EBEBEB;" width="93.676" height="0.25"/>
	<path style="fill:#EBEBEB;" d="M237.014,337.8H43.915c-3.147,0-5.708-2.561-5.708-5.708V60.66c0-3.147,2.561-5.708,5.708-5.708
		h193.099c3.146,0,5.707,2.561,5.707,5.708v271.432C242.721,335.239,240.16,337.8,237.014,337.8z M43.915,55.203
		c-3.01,0-5.458,2.448-5.458,5.458v271.432c0,3.01,2.448,5.458,5.458,5.458h193.099c3.009,0,5.457-2.448,5.457-5.458V60.66
		c0-3.009-2.448-5.458-5.457-5.458H43.915z"/>
	<path style="fill:#EBEBEB;" d="M453.31,337.8H260.212c-3.147,0-5.707-2.561-5.707-5.708V60.66c0-3.147,2.561-5.708,5.707-5.708
		H453.31c3.148,0,5.708,2.561,5.708,5.708v271.432C459.019,335.239,456.458,337.8,453.31,337.8z M260.212,55.203
		c-3.009,0-5.457,2.448-5.457,5.458v271.432c0,3.01,2.448,5.458,5.457,5.458H453.31c3.01,0,5.458-2.448,5.458-5.458V60.66
		c0-3.009-2.448-5.458-5.458-5.458H260.212z"/>
	<rect y="382.398" style="fill:#EBEBEB;" width="500" height="0.25"/>
	<g>
		<g>
			<g>
				<polygon style="fill:#F0F0F0;" points="447.396,287.7 443.013,383.362 438.069,383.362 438.194,380.019 376.401,380.019 
					376.527,383.362 371.576,383.362 367.396,287.7 				"/>
				<polygon style="fill:#FFFFFF;" points="438.382,374.924 376.208,374.924 373.142,293.492 441.428,293.492 				"/>
				<polygon style="fill:#EBEBEB;" points="438.628,316.993 376.572,316.993 375.888,297.424 439.312,297.424 				"/>
				<polygon style="fill:#EBEBEB;" points="436.444,372.488 378.359,372.488 376.505,319.426 438.299,319.426 				"/>
				<path style="fill:#FFFFFF;" d="M410.297,306.259c0,1.563-1.267,2.829-2.829,2.829c-1.563,0-2.829-1.267-2.829-2.829
					c0-1.563,1.267-2.829,2.829-2.829C409.03,303.43,410.297,304.696,410.297,306.259z"/>
				<path style="fill:#FFFFFF;" d="M383.285,349.229L383.285,349.229c-1.132,0-2.05-0.918-2.05-2.05v-14.134
					c0-1.132,0.918-2.05,2.05-2.05l0,0c1.132,0,2.05,0.918,2.05,2.05v14.134C385.335,348.311,384.417,349.229,383.285,349.229z"/>
			</g>
			<g>
				<g>
					<path style="fill:#F0F0F0;" d="M400.649,278.179c0,3.734,0.586,6.15,1.573,7.699c0.742,1.166,2.075,1.821,3.457,1.821h5.407
						c1.382,0,2.715-0.656,3.457-1.821c0.987-1.55,1.573-3.965,1.573-7.699c0-5.416-2.362-9.753-3.133-13.215
						c-0.277-1.247,0.647-5.068,0.647-5.068h-10.496c0,0,0.925,3.821,0.647,5.068C403.01,268.426,400.649,272.762,400.649,278.179z"
						/>
				</g>
				<g>
					<g>
						<g>
							<g>
								<path style="fill:#EBEBEB;" d="M411.885,233.745c0,0-1.769,0.442-2.799,1.815c-1.03,1.373,0.749,4.605,0.749,4.605
									s1.682,1.716,3.772,1.205c2.09-0.511,2.09-0.511,2.09-0.511s-2.211-6.335-3.798-6.694L411.885,233.745z"/>
							</g>
						</g>
						<g>
							<g>
								<path style="fill:#EBEBEB;" d="M420.137,235.26c-0.277,2.754-2.603,5.854-5.062,5.606c-2.459-0.248-4.119-3.75-3.842-6.503
									c0.277-2.754,2.28-2.648,4.739-2.4C418.431,232.21,420.415,232.506,420.137,235.26z"/>
							</g>
							<g>
								<path style="fill:#EBEBEB;" d="M413.202,233.122c0,0,1.57,1.822,5.542,1.683
									C418.744,234.805,411.979,237.676,413.202,233.122z"/>
							</g>
							<g>
								<path style="fill:#EBEBEB;" d="M414.934,232.891c0,0,2.202,0.032,2.065,0.928c0,0,1.828,0.242,1.721-0.563
									C418.613,232.452,414.934,232.891,414.934,232.891z"/>
							</g>
							<g>
								<path style="fill:#E0E0E0;" d="M413.202,233.122c0,0,1.57,1.822,5.542,1.683
									C418.744,234.805,411.979,237.676,413.202,233.122z"/>
							</g>
							<g>
								<path style="fill:#E0E0E0;" d="M414.934,232.891c0,0,2.202,0.032,2.065,0.928c0,0,1.828,0.242,1.721-0.563
									C418.613,232.452,414.934,232.891,414.934,232.891z"/>
							</g>
						</g>
						<g>
							<path style="fill:#EBEBEB;" d="M410.853,240.955c0.533,1.393,1.982,2.332,3.47,2.433c1.489,0.101,2.971-0.56,4.038-1.603
								c1.067-1.043,1.745-2.436,2.115-3.882c0.096-0.374,0.304-1.316-0.167-1.557c-0.433-0.221-0.836,0.366-1.105,0.624
								c-0.773,0.743-1.571,1.426-2.484,1.995c-0.884,0.552-1.832,1.002-2.818,1.338
								C413.626,240.399,410.947,241.201,410.853,240.955z"/>
						</g>
						<g>
							<path style="fill:#EBEBEB;" d="M422.254,237.507c0.25,1.185-0.169,2.489-1.064,3.306c-0.587,0.537-1.337,0.857-2.083,1.134
								c-0.518,0.193-1.169,0.346-1.569-0.036c-0.432-0.412-0.251-1.126-0.029-1.681c0.341-0.853,0.706-1.698,1.094-2.531
								c0.318-0.684,0.655-1.865,1.192-2.395c0.505-0.499,1.001-0.053,1.521,0.477C421.781,236.253,422.117,236.856,422.254,237.507
								z"/>
						</g>
						<g>
							<path style="fill:#E0E0E0;" d="M411.754,239.57c-0.927-0.217-1.691-1.016-1.866-1.952c-0.129-0.692,0.184-2.326,1.059-2.376
								C411.042,236.766,411.112,238.145,411.754,239.57z"/>
						</g>
						<g>
							<path style="fill:#E0E0E0;" d="M418.428,240.054c0.93-0.085,1.801-0.667,2.235-1.494c0.24-0.457,0.52-2.969-0.412-2.068
								c-0.305,0.295-0.466,1.39-0.673,1.806C419.264,238.926,418.878,239.516,418.428,240.054z"/>
						</g>
						<g>
							<path style="fill:#E0E0E0;" d="M414.761,240.944c0.572,0.709,1.658,0.944,2.472,0.534c-0.183,0.461-1.768,0.576-2.262,0.625
								c-1.286,0.128-1.822-0.529-2.912-1.247C412.059,240.857,413.878,241.496,414.761,240.944z"/>
						</g>
					</g>
					<g>
						<g>
							<polygon style="fill:#E6E6E6;" points="406.932,284.728 409.962,254.12 413.975,243.26 414.671,243.517 410.676,254.328 
								407.51,285.563 							"/>
						</g>
					</g>
					<g>
						<g>
							<path style="fill:#E6E6E6;" d="M410.65,254.057l-0.662,0.334c-0.436-0.864-0.772-1.947-1.16-3.201
								c-0.6-1.939-1.281-4.136-2.554-6.208l0.632-0.388c1.322,2.151,2.017,4.396,2.63,6.377
								C409.915,252.193,410.242,253.248,410.65,254.057z"/>
						</g>
						<g>
							<path style="fill:#F0F0F0;" d="M412.282,250.044c1.03-0.072,2.029-0.532,2.754-1.266c0.824-0.835,1.269-1.962,1.693-3.056
								c-1.345,0.14-2.596-0.737-3.945-0.835c-1.075-0.078-2.176,0.378-2.882,1.193c-0.913,1.056-1.448,2.349-0.942,3.008
								C409.376,249.63,410.904,250.141,412.282,250.044z"/>
						</g>
						<g>
							<g>
								<path style="fill:#F0F0F0;" d="M401.447,246.73c0.994-0.826,3.123-1.159,4.329-0.695c1.206,0.464,2.109,1.525,2.363,2.632
									c-0.48,0.73-1.45,1.011-2.318,0.911c-0.868-0.1-1.665-0.514-2.439-0.92c-0.774-0.406-1.571-0.82-2.439-0.921L401.447,246.73
									z"/>
							</g>
						</g>
						<g>
							<g>
								<path style="fill:#F0F0F0;" d="M408.126,247.312c-1.756,0.196-3.33,0.546-4.927-1.452c-1.071-1.34-0.727-3.364-0.649-4.965
									c1.525,0.335,4.98,2.016,5.747,2.428c0.767,0.412,1.419,1.082,1.546,1.875c0.126,0.793-0.411,1.675-1.277,1.82
									C408.537,246.975,408.126,247.312,408.126,247.312z"/>
							</g>
						</g>
					</g>
				</g>
				<path style="fill:#FFFFFF;" d="M403.097,271.123c-0.705,1.992-1.374,4.16-1.145,6.278c0.044,0.403,0.168,0.863,0.459,0.935
					c0.27,0.066,0.538-0.265,0.635-0.632c0.096-0.366,0.071-0.758,0.07-1.139c-0.008-3.283,1.779-6.048,2.118-9.251
					c0.096-0.91-0.139-3.784-0.672-1.673C404.085,267.523,403.748,269.285,403.097,271.123z"/>
			</g>
		</g>
		<g>
			<g>
				<rect x="170.675" y="119.215" style="fill:#E0E0E0;" width="78.784" height="127.715"/>
				<rect x="173.575" y="119.215" style="fill:#F0F0F0;" width="78.784" height="127.715"/>
				<rect x="177.409" y="124.404" style="fill:#FFFFFF;" width="70.965" height="62.328"/>
				<rect x="245.877" y="124.408" style="fill:#E0E0E0;" width="2.498" height="115.041"/>
				
					<rect x="210.276" y="153.645" transform="matrix(6.123234e-17 -1 1 6.123234e-17 23.5427 399.789)" style="fill:#E0E0E0;" width="2.78" height="68.956"/>
				<rect x="176.069" y="182.066" style="fill:#F0F0F0;" width="72.304" height="4.666"/>
			</g>
			<g>
				<rect x="246.342" y="119.215" style="fill:#E0E0E0;" width="78.784" height="127.715"/>
				<rect x="249.242" y="119.215" style="fill:#F0F0F0;" width="78.784" height="127.715"/>
				<rect x="253.076" y="124.404" style="fill:#FFFFFF;" width="70.965" height="62.328"/>
				<rect x="321.544" y="124.408" style="fill:#E0E0E0;" width="2.498" height="115.041"/>
				
					<rect x="285.943" y="153.645" transform="matrix(6.123234e-17 -1 1 6.123234e-17 99.2095 475.4558)" style="fill:#E0E0E0;" width="2.78" height="68.956"/>
				<rect x="251.736" y="182.066" style="fill:#F0F0F0;" width="72.304" height="4.666"/>
			</g>
		</g>
		<g>
			<path style="fill:#EBEBEB;" d="M82.362,340.861c0,0,2.907-32.208-9.892-47.916c-12.8-15.708,9.993-1.407,14.03,14.258
				c0,0,0.756-28.973-12.017-47.749s8.998-4.724,12.794,15.754c0,0,0.723-25.854-5.658-39.562c-6.382-13.708,3.137-5.548,7.345,3.02
				c4.208,8.568,2.115,31.297,2.115,31.297s4.474-42.101,12.962-39.82c8.488,2.281-9.151,31.644-10.563,45.98
				c0,0,7.719-19.996,15.412-16.958c7.693,3.038-10.71,7.237-16.393,36.348l-1.663,13.528c0,0,6.976-19.657,13.356-14.493
				c6.38,5.163-15.548,18.059-18.038,46.872L82.362,340.861z"/>
			<path style="fill:#F0F0F0;" d="M83.737,342.529c0,0-2.725-39.834,13.489-58.805c16.214-18.971-12.293-2.057-17.693,17.142
				c0,0-0.157-35.774,16.106-58.531c16.263-22.758-10.976-6.117-16.208,19.028c0,0-0.2-31.925,8.041-48.634
				c8.241-16.71-3.722-6.947-9.144,3.49c-5.421,10.437-3.447,38.549-3.447,38.549s-4.394-52.092-14.928-49.549
				c-10.534,2.542,10.444,39.339,11.802,57.073c0,0-8.989-24.921-18.563-21.419c-9.574,3.502,13.021,9.274,19.255,45.376
				l1.69,16.746c0,0-8.081-24.478-16.092-18.312c-8.01,6.167,18.701,22.781,21.002,58.414L83.737,342.529z"/>
			<path style="fill:#EBEBEB;" d="M108.936,362.391c0,10.93-11.85,19.8-26.47,19.8c-14.63,0-26.48-8.87-26.48-19.8
				c0-4.93,2.4-9.42,6.38-12.88l-3.13-13.25h46.45l-3.13,13.25C106.535,352.971,108.936,357.461,108.936,362.391z"/>
		</g>
	</g>
</g>
<g id="Background_Simple" style="display:none;">
	<g style="display:inline;">
		<g>
			<path style="fill:#407BFF;" d="M86.283,338.798c-9.44-35.958-2.965-75.792,17.378-106.909
				c5.239-8.014,11.532-15.625,19.812-20.434c8.28-4.808,18.853-6.434,27.515-2.352c9.846,4.639,15.152,15.183,20.92,24.412
				c5.768,9.23,14.364,18.615,25.24,18.195c6.477-0.25,12.24-4.009,17.469-7.84c53.569-39.247,91.753-100.072,152.758-126.309
				c13.505-5.808,29.388-9.621,42.598-3.169c14.479,7.072,21.067,24.294,22.563,40.339c2.328,24.968-4.534,50.212-16.299,72.358
				c-11.765,22.145-28.254,41.451-45.976,59.193c-45.9,45.949-102.97,83.361-167.02,94.123c-21.444,3.603-43.747,4.128-64.681-1.756
				s-40.437-18.668-51.578-37.342C87.041,342.901,86.283,338.798,86.283,338.798z"/>
		</g>
		<g style="opacity:0.9;">
			<path style="fill:#FFFFFF;" d="M86.283,338.798c-9.44-35.958-2.965-75.792,17.378-106.909
				c5.239-8.014,11.532-15.625,19.812-20.434c8.28-4.808,18.853-6.434,27.515-2.352c9.846,4.639,15.152,15.183,20.92,24.412
				c5.768,9.23,14.364,18.615,25.24,18.195c6.477-0.25,12.24-4.009,17.469-7.84c53.569-39.247,91.753-100.072,152.758-126.309
				c13.505-5.808,29.388-9.621,42.598-3.169c14.479,7.072,21.067,24.294,22.563,40.339c2.328,24.968-4.534,50.212-16.299,72.358
				c-11.765,22.145-28.254,41.451-45.976,59.193c-45.9,45.949-102.97,83.361-167.02,94.123c-21.444,3.603-43.747,4.128-64.681-1.756
				s-40.437-18.668-51.578-37.342C87.041,342.901,86.283,338.798,86.283,338.798z"/>
		</g>
	</g>
</g>
<g id="Shadow">
	<ellipse id="_x3C_Path_x3E__359_" style="fill:#F5F5F5;" cx="250" cy="415.693" rx="193.889" ry="11.323"/>
</g>
<g id="Plants">
	<g>
		<g>
			<g>
				<path style="fill:#407BFF;" d="M136.926,330.418c0,0,8.963,14.903,13.254,34.199c9.231,41.511,9.231,49.923,9.231,49.923
					l7.714,0.253c0,0-15.252-75.647-27.634-86.823C127.111,316.794,136.926,330.418,136.926,330.418z"/>
				<path style="opacity:0.4;" d="M136.926,330.418c0,0,8.963,14.903,13.254,34.199c9.231,41.511,9.231,49.923,9.231,49.923
					l7.714,0.253c0,0-15.252-75.647-27.634-86.823C127.111,316.794,136.926,330.418,136.926,330.418z"/>
				<g>
					<path style="fill:#407BFF;" d="M134.06,321.716c2.787-2.196,3.247-1.863,6.194-2.705c-2.398-1.811-4.838-4.761-10.199-5.505
						c-4.875-0.401-8.762,2.612-10.439,6.755c-0.124,0.306-0.378,0.557-0.715,0.671c-0.007,0.002-0.014,0.005-0.02,0.007
						c-0.788,0.266-1.645-0.239-1.667-1.002c-0.096-3.326,1.778-6.689,4.875-8.496c-4.046-0.834-9.022-1.323-12.823,0.186
						c-4.161,1.651-7.782,8.83-6.92,13.096c0.075,0.371-0.138,0.74-0.524,0.88c-0.008,0.003-0.016,0.006-0.024,0.009
						c-0.473,0.173-1.005-0.049-1.162-0.489c-0.384-1.076-1.207-2.992-0.948-5.295c0.23-2.046,1.09-4.151,3.109-5.086
						c-4.724-1.706-13.791,4.658-13.281,4.805c-1.297,3.276-0.108,7.52,0.589,9.486c0.248,0.699-0.091,1.455-0.8,1.81
						c-0.011,0.005-0.022,0.011-0.033,0.016c-0.91,0.455-2.051,0.07-2.413-0.814c-0.81-1.982-1.91-5.202-1.482-7.219
						c-2.037,0.155-3.418,2.383-4.426,3.996c-3.213,5.141-1.385,11.085-0.474,16.597c2.776,2.881,6.823,6.298,12.906,8.062
						c3.702,1.074,7.73,0.714,11.218-0.84l0.086-0.038c-2.663-2.243-5.54-4.827-8.244-7.136c-0.518-0.442-0.577-1.167-0.14-1.676
						c0.006-0.007,0.011-0.013,0.017-0.02c0.462-0.53,1.312-0.63,1.905-0.221c3.822,2.635,6.46,5.177,10.426,7.823
						c3.475-0.623,11.494-5.415,10.715-5.588c-3.488-2.128-9.856-5.007-12.39-8.189c-0.376-0.472-0.234-1.134,0.31-1.445l0,0
						c0.411-0.235,0.943-0.196,1.313,0.089c4.288,3.307,8.521,5.884,13.824,7.743c4.94-1.918,8.612-3.472,10.572-5.824
						c-2.793-1.841-7.038-4.619-10.281-6.75c-1.024-0.673-0.143-2.153,1.023-1.709c0.019,0.007,0.037,0.014,0.056,0.022
						c4.749,1.892,9.024,6.118,14.067,5.712c0,0,7.397-1.625,7.38-4.889C140.221,328.431,132.814,322.697,134.06,321.716z"/>
					<path style="opacity:0.2;fill:#FFFFFF;" d="M134.06,321.716c2.787-2.196,3.247-1.863,6.194-2.705
						c-2.398-1.811-4.838-4.761-10.199-5.505c-4.875-0.401-8.762,2.612-10.439,6.755c-0.124,0.306-0.378,0.557-0.715,0.671
						c-0.007,0.002-0.014,0.005-0.02,0.007c-0.788,0.266-1.645-0.239-1.667-1.002c-0.096-3.326,1.778-6.689,4.875-8.496
						c-4.046-0.834-9.022-1.323-12.823,0.186c-4.161,1.651-7.782,8.83-6.92,13.096c0.075,0.371-0.138,0.74-0.524,0.88
						c-0.008,0.003-0.016,0.006-0.024,0.009c-0.473,0.173-1.005-0.049-1.162-0.489c-0.384-1.076-1.207-2.992-0.948-5.295
						c0.23-2.046,1.09-4.151,3.109-5.086c-4.724-1.706-13.791,4.658-13.281,4.805c-1.297,3.276-0.108,7.52,0.589,9.486
						c0.248,0.699-0.091,1.455-0.8,1.81c-0.011,0.005-0.022,0.011-0.033,0.016c-0.91,0.455-2.051,0.07-2.413-0.814
						c-0.81-1.982-1.91-5.202-1.482-7.219c-2.037,0.155-3.418,2.383-4.426,3.996c-3.213,5.141-1.385,11.085-0.474,16.597
						c2.776,2.881,6.823,6.298,12.906,8.062c3.702,1.074,7.73,0.714,11.218-0.84l0.086-0.038c-2.663-2.243-5.54-4.827-8.244-7.136
						c-0.518-0.442-0.577-1.167-0.14-1.676c0.006-0.007,0.011-0.013,0.017-0.02c0.462-0.53,1.312-0.63,1.905-0.221
						c3.822,2.635,6.46,5.177,10.426,7.823c3.475-0.623,11.494-5.415,10.715-5.588c-3.488-2.128-9.856-5.007-12.39-8.189
						c-0.376-0.472-0.234-1.134,0.31-1.445l0,0c0.411-0.235,0.943-0.196,1.313,0.089c4.288,3.307,8.521,5.884,13.824,7.743
						c4.94-1.918,8.612-3.472,10.572-5.824c-2.793-1.841-7.038-4.619-10.281-6.75c-1.024-0.673-0.143-2.153,1.023-1.709
						c0.019,0.007,0.037,0.014,0.056,0.022c4.749,1.892,9.024,6.118,14.067,5.712c0,0,7.397-1.625,7.38-4.889
						C140.221,328.431,132.814,322.697,134.06,321.716z"/>
				</g>
			</g>
		</g>
		<g>
			<g>
				<path style="fill:#407BFF;" d="M182.529,414.844h-17.899c-3.984-5.87-7.766-13.501-8.689-22.162
					c-2.146-20.016,11.711-37.915,11.711-37.915s12.452,10.431,17.562,25.771c0.924,2.781,1.617,5.716,1.944,8.776
					C188.187,398.879,185.56,407.963,182.529,414.844z"/>
				<path style="opacity:0.3;enable-background:new    ;" d="M182.529,414.844h-17.899c-3.984-5.87-7.766-13.501-8.689-22.162
					c-2.146-20.016,11.711-37.915,11.711-37.915s12.452,10.431,17.562,25.771c0.924,2.781,1.617,5.716,1.944,8.776
					C188.187,398.879,185.56,407.963,182.529,414.844z"/>
			</g>
			<g>
				<g>
					<g>
						<g>
							<path style="fill:#407BFF;" d="M205.124,403.931c-2.55,4.379-5.88,7.978-9.402,10.913h-22.287
								c-0.269-7.545,0.645-17.716,5.793-26.55c1.703-2.916,3.743-5.495,5.985-7.756c10.316-10.557,24.376-14.319,24.376-14.319
								S214.747,387.418,205.124,403.931z"/>
						</g>
					</g>
				</g>
				<g style="opacity:0.4;">
					<g>
						<path style="fill:#FFFFFF;" d="M205.124,403.931c-2.55,4.379-5.88,7.978-9.402,10.913h-22.287
							c-0.269-7.545,0.645-17.716,5.793-26.55c1.703-2.916,3.743-5.495,5.985-7.756c10.316-10.557,24.376-14.319,24.376-14.319
							S214.747,387.418,205.124,403.931z"/>
					</g>
				</g>
			</g>
		</g>
		<g>
			<path style="fill:#407BFF;" d="M90.785,393.254c-2.787,3.966-3.489,3.644-6.951,5.758c3.687,1.787,7.825,5.161,14.916,4.512
				c6.353-0.977,10.257-6.439,10.951-12.79c0.051-0.469,0.288-0.902,0.677-1.169c0.008-0.005,0.016-0.011,0.024-0.016
				c0.912-0.623,2.18-0.184,2.474,0.88c1.281,4.642,0.065,9.96-3.253,13.478c5.447-0.107,11.959-0.992,16.278-4.314
				c4.727-3.635,6.841-14.866,4.257-20.588c-0.225-0.498-0.082-1.083,0.361-1.403c0.009-0.007,0.019-0.014,0.028-0.02
				c0.543-0.392,1.298-0.248,1.651,0.32c0.864,1.39,2.581,3.823,3.054,7.141c0.42,2.948,0.057,6.177-2.191,8.129
				c6.615,0.904,15.954-10.903,15.251-10.948c0.511-5.013-2.483-10.601-4.055-13.142c-0.559-0.904-0.39-2.073,0.389-2.796
				c0.012-0.011,0.024-0.022,0.036-0.034c1.002-0.927,2.59-0.746,3.359,0.382c1.723,2.529,4.247,6.706,4.404,9.675
				c2.542-0.862,3.526-4.429,4.249-7.014c2.304-8.239-2.097-16.013-5.179-23.47c-4.542-3.171-10.889-6.693-19.257-7.25
				c-5.092-0.339-10.1,1.439-14.004,4.725l-0.096,0.081c4.175,2.309,8.742,5.031,12.993,7.421c0.814,0.457,1.143,1.458,0.762,2.31
				c-0.005,0.011-0.01,0.022-0.015,0.033c-0.405,0.89-1.453,1.3-2.351,0.913c-5.789-2.494-10.037-5.233-16.013-7.697
				c-4.212,1.974-12.761,11.241-11.709,11.238c5.186,1.887,14.306,3.92,18.643,7.59c0.644,0.545,0.693,1.52,0.109,2.128l0,0
				c-0.442,0.46-1.133,0.574-1.705,0.29c-6.617-3.292-12.91-5.574-20.316-6.511c-5.628,4.256-9.765,7.6-11.444,11.524
				c4.201,1.704,10.579,4.265,15.455,6.235c1.539,0.622,0.933,2.98-0.708,2.725c-0.026-0.004-0.052-0.008-0.079-0.013
				c-6.711-1.158-13.632-5.745-19.918-3.581c0,0-8.861,4.621-7.701,9.202C80.594,385.766,92.031,391.482,90.785,393.254z"/>
			<path style="fill:#407BFF;" d="M143.557,347.518c0,0,15.038,21.93,19.093,42.635c4.056,20.705,4.638,24.715,4.638,24.715
				l9.129,0.084c0,0-16.408-58.048-30.284-70.451C132.258,332.096,143.557,347.518,143.557,347.518z"/>
			<path style="opacity:0.1;" d="M143.557,347.518c0,0,15.038,21.93,19.093,42.635c4.056,20.705,4.638,24.715,4.638,24.715
				l9.129,0.084c0,0-16.408-58.048-30.284-70.451C132.258,332.096,143.557,347.518,143.557,347.518z"/>
			<path style="opacity:0.6;fill:#FFFFFF;" d="M90.785,393.254c-2.787,3.966-3.489,3.644-6.951,5.758
				c3.687,1.787,7.825,5.161,14.916,4.512c6.353-0.977,10.257-6.439,10.951-12.79c0.051-0.469,0.288-0.902,0.677-1.169
				c0.008-0.005,0.016-0.011,0.024-0.016c0.912-0.623,2.18-0.184,2.474,0.88c1.281,4.642,0.065,9.96-3.253,13.478
				c5.447-0.107,11.959-0.992,16.278-4.314c4.727-3.635,6.841-14.866,4.257-20.588c-0.225-0.498-0.082-1.083,0.361-1.403
				c0.009-0.007,0.019-0.014,0.028-0.02c0.543-0.392,1.298-0.248,1.651,0.32c0.864,1.39,2.581,3.823,3.054,7.141
				c0.42,2.948,0.057,6.177-2.191,8.129c6.615,0.904,15.954-10.903,15.251-10.948c0.511-5.013-2.483-10.601-4.055-13.142
				c-0.559-0.904-0.39-2.073,0.389-2.796c0.012-0.011,0.024-0.022,0.036-0.034c1.002-0.927,2.59-0.746,3.359,0.382
				c1.723,2.529,4.247,6.706,4.404,9.675c2.542-0.862,3.526-4.429,4.249-7.014c2.304-8.239-2.097-16.013-5.179-23.47
				c-4.542-3.171-10.889-6.693-19.257-7.25c-5.092-0.339-10.1,1.439-14.004,4.725l-0.096,0.081
				c4.175,2.309,8.742,5.031,12.993,7.421c0.814,0.457,1.143,1.458,0.762,2.31c-0.005,0.011-0.01,0.022-0.015,0.033
				c-0.405,0.89-1.453,1.3-2.351,0.913c-5.789-2.494-10.037-5.233-16.013-7.697c-4.212,1.974-12.761,11.241-11.709,11.238
				c5.186,1.887,14.306,3.92,18.643,7.59c0.644,0.545,0.693,1.52,0.109,2.128l0,0c-0.442,0.46-1.133,0.574-1.705,0.29
				c-6.617-3.292-12.91-5.574-20.316-6.511c-5.628,4.256-9.765,7.6-11.444,11.524c4.201,1.704,10.579,4.265,15.455,6.235
				c1.539,0.622,0.933,2.98-0.708,2.725c-0.026-0.004-0.052-0.008-0.079-0.013c-6.711-1.158-13.632-5.745-19.918-3.581
				c0,0-8.861,4.621-7.701,9.202C80.594,385.766,92.031,391.482,90.785,393.254z"/>
		</g>
		<g>
			<g>
				<g>
					<path style="fill:#407BFF;" d="M339.952,367.822c0.061,0.197-1.072,0.843,1.93,1.711c7.393,2.136,20.724,4.865,27.345-0.712
						c9.454-7.962-7.095-11.07-4.198-16.028c2.897-4.958,19.373,3.703,24.666-3.092c5.293-6.794-7.833-8.428-6.28-12.211
						c1.553-3.782,13.696,4.583,20.09-2.432c6.394-7.016-6.361-5.547-3.645-8.438c2.716-2.89,20.981-13.22,15.729-17.805
						c-5.253-4.585-22.774,6.577-27.756,7.011c-4.983,0.434-2.547-14.125-9.766-10.821c-7.219,3.304-8.533,25.859-16.243,26.813
						c-5.742,0.71-0.983-6.324-7.538-7.614C345.381,322.453,335.077,352.007,339.952,367.822z"/>
				</g>
				<g style="opacity:0.3;">
					<path style="fill:#FFFFFF;" d="M339.952,367.822c0.061,0.197-1.072,0.843,1.93,1.711c7.393,2.136,20.724,4.865,27.345-0.712
						c9.454-7.962-7.095-11.07-4.198-16.028c2.897-4.958,19.373,3.703,24.666-3.092c5.293-6.794-7.833-8.428-6.28-12.211
						c1.553-3.782,13.696,4.583,20.09-2.432c6.394-7.016-6.361-5.547-3.645-8.438c2.716-2.89,20.981-13.22,15.729-17.805
						c-5.253-4.585-22.774,6.577-27.756,7.011c-4.983,0.434-2.547-14.125-9.766-10.821c-7.219,3.304-8.533,25.859-16.243,26.813
						c-5.742,0.71-0.983-6.324-7.538-7.614C345.381,322.453,335.077,352.007,339.952,367.822z"/>
				</g>
			</g>
			<g>
				<g>
					<g>
						<g>
							<g>
								<g>
									<g>
										<g>
											<g>
												<g>
													<g>
														<path style="fill:#407BFF;" d="M327.884,392.883c-0.013-0.004-0.025-0.008-0.039-0.013
															c-0.258-0.097-0.388-0.385-0.291-0.644c18.411-48.669,52.301-61.986,52.641-62.115
															c0.258-0.097,0.547,0.033,0.644,0.291s-0.032,0.547-0.29,0.645c-0.336,0.128-33.818,13.312-52.06,61.533
															C328.397,392.825,328.132,392.954,327.884,392.883z"/>
													</g>
													<g>
														<path style="fill:#407BFF;" d="M371.914,335.471c-0.195-0.056-0.344-0.23-0.36-0.444
															c-0.02-0.275,0.186-0.515,0.461-0.536c0.194-0.015,4.831-0.322,11.516,2.901c0.249,0.12,0.353,0.419,0.234,0.668
															c-0.12,0.249-0.42,0.355-0.668,0.234c-6.424-3.096-10.962-2.807-11.007-2.805
															C372.028,335.494,371.969,335.487,371.914,335.471z"/>
													</g>
													<g>
														<path style="fill:#407BFF;" d="M365.08,340.257c-0.254-0.073-0.409-0.333-0.348-0.594
															c3.565-15.209,15.25-24.913,15.368-25.01c0.213-0.175,0.529-0.143,0.703,0.07c0.175,0.214,0.144,0.529-0.07,0.704
															c-0.115,0.094-11.543,9.596-15.027,24.464c-0.063,0.268-0.332,0.436-0.601,0.372
															C365.097,340.262,365.089,340.259,365.08,340.257z"/>
													</g>
													<g>
														<path style="fill:#407BFF;" d="M353.33,350.992c-0.121-0.035-0.229-0.115-0.296-0.234
															c-0.137-0.24-0.053-0.545,0.188-0.682c0.08-0.045,8.054-4.465,15.822,0.67c0.23,0.153,0.293,0.463,0.141,0.693
															c-0.152,0.23-0.463,0.294-0.693,0.142c-7.261-4.803-14.702-0.677-14.776-0.635
															C353.594,351.016,353.455,351.028,353.33,350.992z"/>
													</g>
													<g>
														<path style="fill:#407BFF;" d="M346.638,358.849c-0.179-0.052-0.322-0.203-0.354-0.399
															c-0.058-0.352-1.375-8.76,3.04-19.199c0.108-0.254,0.393-0.38,0.655-0.265c0.254,0.107,0.373,0.4,0.266,0.655
															c-4.296,10.157-2.988,18.563-2.974,18.647c0.044,0.272-0.14,0.53-0.412,0.574
															C346.783,358.874,346.708,358.869,346.638,358.849z"/>
													</g>
												</g>
											</g>
										</g>
									</g>
								</g>
							</g>
							<g>
								<g>
									<g>
										<path style="fill:#407BFF;" d="M323.693,410.851c-0.25-0.072-0.404-0.326-0.35-0.584l2.623-13.443
											c8.956-44.637-13.995-82.106-14.227-82.479c-0.146-0.234-0.075-0.543,0.159-0.689c0.236-0.146,0.543-0.074,0.689,0.159
											c0.235,0.377,23.396,38.169,14.358,83.211l-2.624,13.447c-0.057,0.27-0.322,0.443-0.593,0.386
											C323.716,410.858,323.705,410.854,323.693,410.851z"/>
									</g>
									<g>
										<path style="fill:#407BFF;" d="M320.175,334.003c-0.026-0.008-0.052-0.017-0.077-0.029
											c-0.04-0.019-0.087-0.053-0.128-0.089l-0.141-0.102c-3.564-2.619-7.788-4.56-11.889-5.469
											c-0.276-0.053-0.44-0.326-0.38-0.597c0.06-0.27,0.327-0.439,0.596-0.38c4.235,0.941,8.591,2.94,12.266,5.64l0.145,0.106
											c0.026,0.018,0.051,0.038,0.074,0.06c0.167,0.144,0.224,0.387,0.125,0.595
											C320.657,333.962,320.406,334.069,320.175,334.003z"/>
									</g>
									<g>
										<path style="fill:#407BFF;" d="M323.068,340.742c-0.008-0.002-0.016-0.005-0.024-0.008
											c-0.262-0.089-0.4-0.374-0.311-0.635c4.366-12.753,0.238-25.136,0.196-25.259c-0.089-0.261,0.05-0.546,0.311-0.635
											c0.263-0.088,0.546,0.051,0.635,0.311c0.043,0.126,4.284,12.82-0.196,25.907
											C323.592,340.677,323.322,340.815,323.068,340.742z"/>
									</g>
									<g>
										<path style="fill:#407BFF;" d="M325.641,349.379c-0.117-0.034-0.222-0.111-0.29-0.223
											c-0.037-0.062-3.769-6.124-11.441-5.968c-0.278,0.007-0.504-0.215-0.51-0.49c-0.006-0.276,0.214-0.504,0.49-0.51
											c8.271-0.171,12.159,6.184,12.32,6.454c0.141,0.237,0.064,0.543-0.172,0.685
											C325.913,349.402,325.77,349.416,325.641,349.379z"/>
									</g>
									<g>
										<path style="fill:#407BFF;" d="M328.207,363.203c-0.069-0.02-0.134-0.055-0.192-0.105
											c-0.207-0.183-0.227-0.499-0.045-0.705c0.049-0.057,4.981-5.76,6.522-15.35c0.044-0.273,0.3-0.458,0.573-0.414
											c0.277,0.033,0.458,0.3,0.414,0.573c-1.589,9.892-6.548,15.613-6.759,15.852
											C328.589,363.203,328.387,363.255,328.207,363.203z"/>
									</g>
								</g>
								<g>
									<path style="fill:#407BFF;" d="M329.216,373.456c-6.176-1.369-15.296-9.616-18.076-16.166
										c-2.821-6.647,8.101-0.306,7.962-5.024c-0.139-4.718-15.437-4.953-16.582-11.939c-1.145-6.986,8.969-2.999,9.337-6.34
										c0.368-3.34-10.635-5.303-12.488-12.882c-1.853-7.58,6.774-1.5,5.951-4.654c-0.822-3.155-9.937-17.798-4.342-19.039
										c5.595-1.241,13.845,13.71,17.27,15.984c3.424,2.274,6.346-5.97,10.254-0.745c3.909,5.226-4.021,22.019,1.168,25.741
										c3.864,2.772,3.998-5.762,8.436-2.527C345.876,341.526,331.724,374.011,329.216,373.456z"/>
									<g style="opacity:0.2;">
										<path style="fill:#FFFFFF;" d="M329.216,373.456c-6.176-1.369-15.296-9.616-18.076-16.166
											c-2.821-6.647,8.101-0.306,7.962-5.024c-0.139-4.718-15.437-4.953-16.582-11.939c-1.145-6.986,8.969-2.999,9.337-6.34
											c0.368-3.34-10.635-5.303-12.488-12.882c-1.853-7.58,6.774-1.5,5.951-4.654c-0.822-3.155-9.937-17.798-4.342-19.039
											c5.595-1.241,13.845,13.71,17.27,15.984c3.424,2.274,6.346-5.97,10.254-0.745c3.909,5.226-4.021,22.019,1.168,25.741
											c3.864,2.772,3.998-5.762,8.436-2.527C345.876,341.526,331.724,374.011,329.216,373.456z"/>
									</g>
								</g>
							</g>
						</g>
					</g>
					<g>
						<g>
							<g>
								<g>
									<g>
										<path style="fill:#407BFF;" d="M327.348,393.969c-0.02-0.006-0.04-0.012-0.059-0.021
											c-0.254-0.109-0.371-0.403-0.262-0.657c0.034-0.085,0.367-1.004,0.908-2.602c0.825-2.385,2.489-7.398,4.374-14.207
											c0.041-0.12,0.06-0.202,0.082-0.293c2.097-7.609,3.845-15.189,5.198-22.541c1.266-6.855,2.194-13.599,2.759-20.044
											c0.499-5.837,0.701-11.446,0.601-16.673c-0.001-0.015-0.002-0.03-0.002-0.045l-0.001,0
											c-0.017-0.82-0.045-1.643-0.073-2.466c-0.029-0.67-0.058-1.345-0.098-2.022c-0.098-1.754-0.162-3.423-0.192-4.963
											c-0.079-3.393-0.043-6.748,0.107-9.971c0.082-1.937,0.205-3.831,0.368-5.626c0.605-7.027,1.763-13.833,3.44-20.228
											c0.682-2.608,1.466-5.182,2.328-7.648c0.942-2.689,1.988-5.249,3.108-7.608c0.087-0.176,0.163-0.34,0.236-0.498
											l0.112-0.232c0.036-0.116,0.113-0.219,0.226-0.284c0.239-0.139,0.544-0.058,0.684,0.181c0.091,0.157,0.084,0.358,0,0.516
											l0.002,0.001l-0.116,0.237c-0.077,0.166-0.156,0.338-0.244,0.515c-1.101,2.32-2.134,4.846-3.065,7.502
											c-0.853,2.441-1.629,4.988-2.304,7.571c-1.663,6.34-2.811,13.09-3.412,20.063c-0.161,1.781-0.283,3.659-0.365,5.582
											c-0.149,3.202-0.185,6.534-0.106,9.905c0.03,1.531,0.094,3.188,0.191,4.928c0.04,0.681,0.07,1.361,0.099,2.041
											c0.028,0.827,0.056,1.65,0.073,2.471c0.002,0.016,0.002,0.032,0.003,0.047l0.001,0c0.102,5.265-0.101,10.914-0.604,16.79
											c-0.568,6.478-1.5,13.253-2.772,20.139c-1.359,7.381-3.113,14.988-5.214,22.61c-0.026,0.108-0.054,0.22-0.096,0.341
											c-1.883,6.803-3.555,11.839-4.382,14.233c-0.55,1.627-0.9,2.59-0.936,2.673
											C327.845,393.92,327.587,394.038,327.348,393.969z"/>
									</g>
								</g>
								<g>
									<g>
										<g>
											<path style="fill:#407BFF;" d="M350.689,255.924c0.016-0.019,0.016-0.019,0.026-0.016
												c0.016-0.019,0.016-0.019,0.027-0.016c1.03-0.547,2.119-0.965,3.237-1.263c1.222-0.307,2.49-0.478,3.76-0.466"/>
											<path style="fill:#407BFF;" d="M350.55,256.401c-0.064-0.018-0.125-0.05-0.179-0.095
												c-0.212-0.177-0.243-0.489-0.068-0.701c0.039-0.047,0.088-0.087,0.143-0.119c0.02-0.013,0.04-0.024,0.061-0.035l0-0.002
												c1.038-0.551,2.162-0.989,3.342-1.305c1.323-0.332,2.63-0.494,3.893-0.483c0.274,0.002,0.498,0.228,0.495,0.504
												c-0.002,0.276-0.228,0.498-0.504,0.495c-1.178-0.01-2.4,0.141-3.633,0.451c-1.1,0.294-2.153,0.705-3.124,1.22
												c-0.005,0.002-0.009,0.004-0.014,0.007C350.84,256.419,350.688,256.441,350.55,256.401z"/>
										</g>
									</g>
								</g>
								<g>
									<g>
										<path style="fill:#407BFF;" d="M347.16,264.609c-0.108-0.031-0.206-0.098-0.274-0.199l-2.461-3.615
											c-0.155-0.228-0.096-0.539,0.132-0.695c0.227-0.154,0.539-0.097,0.695,0.132l2.461,3.616
											c0.155,0.228,0.096,0.539-0.132,0.695C347.453,264.629,347.298,264.649,347.16,264.609z"/>
									</g>
								</g>
								<g>
									<g>
										<path style="fill:#407BFF;" d="M340.93,307.956c-0.257-0.074-0.4-0.376-0.336-0.639l0.003-0.011
											c0.411-0.919,0.875-1.705,1.411-2.427c0.762-1.068,1.688-2.024,2.747-2.833c0.772-0.593,1.627-1.109,2.541-1.533
											c0.249-0.116,0.548-0.008,0.664,0.243c0.116,0.251,0.007,0.547-0.243,0.664c-0.846,0.393-1.637,0.87-2.353,1.42
											c-0.981,0.749-1.837,1.633-2.547,2.628c-0.5,0.674-0.929,1.399-1.279,2.165c-0.065,0.268-0.321,0.393-0.589,0.328
											C340.942,307.96,340.936,307.958,340.93,307.956z"/>
									</g>
								</g>
								<g>
									<g>
										<path style="fill:#407BFF;" d="M341.314,317.395c-0.184-0.053-0.329-0.21-0.357-0.411c-0.317-2.279-1.64-4.414-3.54-5.711
											c-0.228-0.156-0.286-0.467-0.131-0.695c0.156-0.228,0.467-0.288,0.695-0.131c2.129,1.453,3.612,3.846,3.967,6.399
											c0.038,0.274-0.153,0.526-0.426,0.564C341.449,317.419,341.379,317.414,341.314,317.395z"/>
									</g>
								</g>
								<g>
									<g>
										<path style="fill:#407BFF;" d="M336.288,362.265c-0.747-1.526-0.374-6.56-0.174-9.264
											c0.048-0.647,0.089-1.198,0.109-1.598"/>
										<path style="fill:#407BFF;" d="M336.15,362.745c-0.131-0.038-0.246-0.129-0.311-0.26c-0.744-1.52-0.506-5.711-0.224-9.519
											c0.048-0.644,0.088-1.19,0.108-1.587c0.013-0.276,0.248-0.489,0.523-0.475c0.276,0.007,0.489,0.248,0.475,0.523
											c-0.019,0.403-0.06,0.959-0.109,1.611c-0.182,2.469-0.562,7.603,0.125,9.007c0.121,0.249,0.019,0.548-0.229,0.669
											C336.392,362.77,336.265,362.778,336.15,362.745z"/>
									</g>
								</g>
							</g>
							<g>
								<path style="fill:#407BFF;" d="M341.044,298.012c-0.25-0.072-0.405-0.326-0.35-0.583
									c0.169-0.802,4.283-19.671,16.636-24.127c0.26-0.094,0.547,0.041,0.64,0.301c0.094,0.26-0.041,0.546-0.301,0.64
									c-11.827,4.267-15.957,23.202-15.997,23.393c-0.057,0.27-0.322,0.443-0.592,0.385
									C341.068,298.018,341.056,298.015,341.044,298.012z"/>
							</g>
							<g>
								<path style="fill:#407BFF;" d="M330.27,338.53c-2.466,4.145,5.126,15.006,5.126,15.006s13.167,1.491,15.633-2.654
									c2.466-4.145,1.001-12.257-4.731-15.668C340.565,331.803,332.736,334.385,330.27,338.53z"/>
								<path style="fill:#407BFF;" d="M332.696,281.579c0.075,5.053,8.4,10.642,8.4,10.642s8.155-5.833,8.081-10.887
									c-0.075-5.053-3.861-11.517-8.412-11.449C336.214,269.952,332.621,276.525,332.696,281.579z"/>
								<path style="fill:#407BFF;" d="M353.111,302.64c-1.431,0.607-2.904,1.224-4.458,1.267c-1.554,0.043-3.229-0.618-3.945-1.998
									c-0.887-1.711-0.028-3.822,1.159-5.341c2.35-3.009,9.393-7.377,13.34-4.682C364.905,295.778,356.41,301.24,353.111,302.64z"
									/>
								<path style="fill:#407BFF;" d="M338.192,308.15c0.576,1.219,1.139,2.715,0.391,3.837c-0.663,0.995-2.125,1.172-3.233,0.72
									c-1.107-0.452-1.942-1.374-2.737-2.268c-1.843-2.073-5.602-6.396-1.975-8.713
									C334.409,299.318,336.978,305.582,338.192,308.15z"/>
								<path style="fill:#407BFF;" d="M367.094,269.688c0.922,0.334,1.729,1.2,1.663,2.178c-0.077,1.144-1.22,1.885-2.267,2.352
									c-2.608,1.163-10.321,4.139-10.73-0.629C355.374,269.084,364.251,268.659,367.094,269.688z"/>
								<g>
									<path style="fill:#407BFF;" d="M358.42,252.232c1.332,0.459,2.812,0.294,4.158,0.71c1.346,0.417,2.597,1.883,1.97,3.145
										c-0.579,1.166-2.213,1.209-3.496,0.983c-2.188-0.385-4.325-1.061-6.337-2.003c-0.467-0.219-0.967-0.494-1.148-0.976
										c-0.356-0.948,0.787-1.826,1.797-1.887c1.01-0.061,2.048,0.292,3.02,0.01L358.42,252.232z"/>
								</g>
								<g>
									<path style="fill:#407BFF;" d="M342.829,258.394c-1.379-0.292-2.562-1.194-3.931-1.529
										c-1.368-0.335-3.195,0.279-3.307,1.684c-0.104,1.298,1.276,2.175,2.492,2.641c2.075,0.795,4.255,1.315,6.465,1.542
										c0.513,0.053,1.083,0.074,1.487-0.247c0.792-0.629,0.264-1.97-0.57-2.542c-0.835-0.572-1.907-0.804-2.595-1.545
										L342.829,258.394z"/>
								</g>
							</g>
						</g>
						<g>
							<path style="fill:#407BFF;" d="M349.796,257.612c-0.011-0.003-0.023-0.007-0.034-0.011c-0.259-0.095-0.392-0.382-0.297-0.641
								c0.944-2.577,1.391-5.185,0.936-5.472c-0.233-0.148-0.303-0.456-0.155-0.69c0.147-0.233,0.454-0.306,0.69-0.155
								c1.401,0.885,0.094,4.953-0.532,6.661C350.312,257.552,350.046,257.684,349.796,257.612z"/>
						</g>
						<g>
							<path style="fill:#407BFF;" d="M352.47,251.699c-0.378-2.056-0.803-4.214-2.158-5.806c-1.354-1.592-3.965-2.318-5.559-0.965
								c-1.781,1.512-1.117,4.626,0.696,6.1c1.813,1.474,4.287,1.76,6.612,1.988c0.099-0.33,0.198-0.659,0.297-0.989L352.47,251.699
								z"/>
						</g>
					</g>
				</g>
			</g>
			<g>
				<g>
					<g>
						<g>
							<g>
								<g>
									<g>
										<g>
											<g>
												<g>
													<g>
														<path style="fill:#407BFF;" d="M174.045,392.474c-0.013,0.002-0.027,0.003-0.041,0.004
															c-0.275,0.022-0.516-0.184-0.537-0.459c-4.029-51.878,20.983-78.342,21.236-78.603
															c0.193-0.197,0.509-0.203,0.707-0.011c0.198,0.192,0.204,0.508,0.011,0.707c-0.25,0.259-24.949,26.428-20.957,77.829
															C174.484,392.203,174.299,392.433,174.045,392.474z"/>
													</g>
													<g>
														<path style="fill:#407BFF;" d="M189.485,321.79c-0.201,0.032-0.409-0.061-0.515-0.248
															c-0.135-0.241-0.051-0.545,0.19-0.681c0.169-0.096,4.235-2.346,11.656-2.271c0.276,0.003,0.498,0.229,0.495,0.505
															c-0.003,0.276-0.229,0.5-0.505,0.495c-7.131-0.07-11.116,2.121-11.155,2.141
															C189.598,321.762,189.542,321.78,189.485,321.79z"/>
													</g>
													<g>
														<path style="fill:#407BFF;" d="M185.335,329.027c-0.261,0.042-0.512-0.128-0.568-0.39
															c-3.24-15.281,3.21-29.033,3.275-29.171c0.118-0.249,0.418-0.354,0.666-0.235c0.249,0.119,0.355,0.418,0.236,0.667
															c-0.064,0.134-6.367,13.593-3.199,28.532c0.057,0.27-0.115,0.536-0.385,0.593
															C185.352,329.024,185.344,329.026,185.335,329.027z"/>
													</g>
													<g>
														<path style="fill:#407BFF;" d="M179.265,343.739c-0.124,0.02-0.256-0.007-0.367-0.086
															c-0.225-0.159-0.279-0.471-0.12-0.697c0.053-0.075,5.392-7.466,14.605-6.121c0.273,0.04,0.462,0.294,0.422,0.568
															c-0.04,0.272-0.293,0.463-0.567,0.423c-8.615-1.26-13.595,5.638-13.644,5.708
															C179.513,343.648,179.393,343.719,179.265,343.739z"/>
													</g>
													<g>
														<path style="fill:#407BFF;" d="M176.549,353.696c-0.184,0.029-0.378-0.047-0.49-0.211
															c-0.203-0.294-4.97-7.344-5.412-18.669c-0.01-0.275,0.194-0.511,0.48-0.519c0.275-0.011,0.508,0.204,0.519,0.48
															c0.43,11.02,5.188,18.073,5.236,18.142c0.156,0.227,0.098,0.539-0.129,0.695
															C176.69,353.658,176.62,353.684,176.549,353.696z"/>
													</g>
												</g>
											</g>
										</g>
									</g>
								</g>
							</g>
							<g>
								<g>
									<g>
										<path style="fill:#407BFF;" d="M178.99,415.104c-0.257,0.041-0.505-0.123-0.565-0.38l-4.441-17.867
											c-10.873-44.209-47.577-68.365-47.946-68.603c-0.232-0.15-0.299-0.46-0.149-0.691c0.151-0.232,0.46-0.298,0.691-0.149
											c0.373,0.241,37.405,24.599,48.376,69.21l4.442,17.872c0.063,0.269-0.104,0.537-0.372,0.601
											C179.014,415.1,179.002,415.102,178.99,415.104z"/>
									</g>
									<g>
										<path style="fill:#407BFF;" d="M142.032,342.459c-0.027,0.004-0.054,0.007-0.083,0.006c-0.044,0-0.102-0.011-0.154-0.026
											l-0.171-0.032c-4.339-0.855-8.987-0.816-13.086,0.105c-0.273,0.069-0.537-0.108-0.598-0.378
											c-0.061-0.269,0.109-0.537,0.378-0.597c4.233-0.949,9.026-0.992,13.5-0.111l0.176,0.034
											c0.031,0.005,0.062,0.013,0.092,0.023c0.212,0.059,0.367,0.255,0.366,0.486
											C142.451,342.217,142.269,342.421,142.032,342.459z"/>
									</g>
									<g>
										<path style="fill:#407BFF;" d="M147.516,347.329c-0.008,0.001-0.016,0.003-0.025,0.003
											c-0.275,0.031-0.521-0.168-0.552-0.442c-1.471-13.4-10.472-22.852-10.562-22.946c-0.192-0.198-0.186-0.515,0.012-0.707
											c0.2-0.192,0.516-0.186,0.707,0.012c0.093,0.096,9.328,9.783,10.838,23.532
											C147.963,347.047,147.777,347.287,147.516,347.329z"/>
									</g>
									<g>
										<path style="fill:#407BFF;" d="M153.517,354.052c-0.12,0.019-0.248-0.006-0.357-0.079
											c-0.06-0.041-6.015-3.94-12.893-0.537c-0.248,0.125-0.548,0.02-0.67-0.226c-0.123-0.247-0.021-0.548,0.226-0.67
											c7.413-3.672,13.634,0.428,13.895,0.604c0.229,0.154,0.289,0.464,0.135,0.693
											C153.773,353.957,153.65,354.031,153.517,354.052z"/>
									</g>
									<g>
										<path style="fill:#407BFF;" d="M161.718,365.473c-0.071,0.011-0.145,0.007-0.218-0.014
											c-0.265-0.077-0.417-0.355-0.341-0.619c0.021-0.073,2.059-7.331-0.623-16.667c-0.076-0.266,0.077-0.542,0.342-0.618
											c0.265-0.088,0.542,0.077,0.618,0.342c2.767,9.629,0.711,16.915,0.623,17.221
											C162.063,365.311,161.903,365.444,161.718,365.473z"/>
									</g>
								</g>
								<g>
									<path style="fill:#407BFF;" d="M166.99,374.324c-6.172,1.387-17.933-2.199-23.235-6.946
										c-5.379-4.817,7.202-3.722,5.07-7.933c-2.132-4.211-16.078,2.081-20.085-3.756c-4.007-5.836,6.843-6.528,5.756-9.708
										c-1.087-3.18-11.881-0.278-16.781-6.35c-4.9-6.073,5.493-4.237,3.408-6.743c-2.086-2.505-16.562-11.884-12.025-15.387
										c4.537-3.502,18.36,6.522,22.427,7.124c4.066,0.602,3.206-8.102,8.965-5.034c5.76,3.068,5.723,21.639,12.001,22.802
										c4.676,0.866,1.169-6.915,6.561-5.874C168.493,338.341,169.496,373.76,166.99,374.324z"/>
									<g style="opacity:0.4;">
										<path style="fill:#FFFFFF;" d="M166.99,374.324c-6.172,1.387-17.933-2.199-23.235-6.946
											c-5.379-4.817,7.202-3.722,5.07-7.933c-2.132-4.211-16.078,2.081-20.085-3.756c-4.007-5.836,6.843-6.528,5.756-9.708
											c-1.087-3.18-11.881-0.278-16.781-6.35c-4.9-6.073,5.493-4.237,3.408-6.743c-2.086-2.505-16.562-11.884-12.025-15.387
											c4.537-3.502,18.36,6.522,22.427,7.124c4.066,0.602,3.206-8.102,8.965-5.034c5.76,3.068,5.723,21.639,12.001,22.802
											c4.676,0.866,1.169-6.915,6.561-5.874C168.493,338.341,169.496,373.76,166.99,374.324z"/>
									</g>
								</g>
							</g>
						</g>
					</g>
					<g>
						<g>
							<g>
								<g>
									<g>
										<path style="fill:#407BFF;" d="M174.021,393.685c-0.02,0.003-0.041,0.005-0.062,0.006
											c-0.276,0.009-0.507-0.207-0.517-0.483c-0.005-0.091-0.094-1.065-0.285-2.741c-0.267-2.51-0.893-7.754-2.081-14.719
											c-0.014-0.126-0.032-0.208-0.05-0.3c-1.337-7.779-2.978-15.382-4.879-22.612c-1.769-6.743-3.796-13.241-6.025-19.315
											c-2.03-5.495-4.232-10.658-6.545-15.346c-0.007-0.013-0.015-0.026-0.021-0.04l-0.001,0.001
											c-0.364-0.735-0.739-1.468-1.115-2.201c-0.311-0.594-0.624-1.192-0.948-1.788c-0.834-1.546-1.602-3.029-2.284-4.41
											c-1.514-3.037-2.908-6.09-4.143-9.07c-0.749-1.788-1.443-3.554-2.059-5.248c-2.44-6.618-4.286-13.27-5.487-19.771
											c-0.492-2.65-0.877-5.313-1.145-7.912c-0.291-2.835-0.433-5.597-0.422-8.208c0.004-0.197,0.003-0.377,0.002-0.551
											l0.003-0.258c-0.017-0.12,0.01-0.246,0.084-0.354c0.157-0.227,0.468-0.284,0.696-0.127
											c0.149,0.103,0.229,0.288,0.219,0.467l0.002,0l-0.004,0.264c0.001,0.183,0.003,0.372-0.002,0.569
											c-0.01,2.568,0.13,5.294,0.416,8.093c0.265,2.572,0.647,5.208,1.134,7.832c1.19,6.446,3.021,13.043,5.442,19.61
											c0.612,1.68,1.299,3.432,2.043,5.207c1.227,2.961,2.611,5.993,4.116,9.011c0.678,1.373,1.44,2.845,2.268,4.379
											c0.325,0.599,0.642,1.202,0.957,1.805c0.377,0.737,0.752,1.47,1.117,2.206c0.008,0.014,0.015,0.028,0.022,0.042l0.001,0
											c2.331,4.721,4.549,9.921,6.592,15.453c2.241,6.105,4.277,12.633,6.054,19.407c1.908,7.258,3.555,14.89,4.895,22.681
											c0.023,0.109,0.045,0.222,0.058,0.35c1.188,6.958,1.817,12.227,2.085,14.745c0.194,1.707,0.287,2.727,0.29,2.818
											C174.45,393.43,174.267,393.646,174.021,393.685z"/>
									</g>
								</g>
								<g>
									<g>
										<g>
											<path style="fill:#407BFF;" d="M136.452,258.816c0.006-0.024,0.006-0.024,0.017-0.026
												c0.006-0.024,0.006-0.024,0.017-0.026c0.7-0.932,1.508-1.775,2.393-2.519c0.975-0.797,2.051-1.491,3.205-2.02"/>
											<path style="fill:#407BFF;" d="M136.529,259.307c-0.066,0.01-0.134,0.008-0.202-0.01
												c-0.267-0.07-0.428-0.339-0.359-0.605c0.015-0.059,0.043-0.117,0.079-0.169c0.012-0.02,0.026-0.039,0.041-0.057
												l-0.001-0.001c0.705-0.94,1.536-1.815,2.471-2.602c1.056-0.863,2.171-1.566,3.318-2.092
												c0.249-0.115,0.548-0.005,0.663,0.246c0.115,0.251,0.005,0.548-0.246,0.663c-1.07,0.492-2.112,1.148-3.097,1.953
												c-0.87,0.733-1.649,1.554-2.309,2.433c-0.003,0.004-0.006,0.008-0.01,0.012C136.8,259.2,136.672,259.284,136.529,259.307
												z"/>
										</g>
									</g>
								</g>
								<g>
									<g>
										<path style="fill:#407BFF;" d="M136.951,268.177c-0.111,0.018-0.228-0.002-0.333-0.064l-3.764-2.226
											c-0.238-0.141-0.316-0.447-0.176-0.685c0.14-0.236,0.446-0.317,0.685-0.176l3.764,2.226
											c0.238,0.141,0.316,0.447,0.176,0.685C137.225,268.071,137.093,268.154,136.951,268.177z"/>
									</g>
								</g>
								<g>
									<g>
										<path style="fill:#407BFF;" d="M149.743,310.06c-0.264,0.042-0.522-0.17-0.576-0.435l-0.002-0.011
											c-0.019-1.007,0.067-1.916,0.245-2.797c0.235-1.29,0.667-2.549,1.282-3.732c0.447-0.865,1.001-1.696,1.648-2.468
											c0.176-0.211,0.493-0.24,0.704-0.062c0.212,0.177,0.239,0.492,0.062,0.704c-0.599,0.715-1.112,1.484-1.526,2.285
											c-0.57,1.095-0.969,2.259-1.188,3.461c-0.166,0.823-0.246,1.661-0.237,2.504c0.055,0.271-0.123,0.492-0.394,0.548
											C149.755,310.058,149.749,310.059,149.743,310.06z"/>
									</g>
								</g>
								<g>
									<g>
										<path style="fill:#407BFF;" d="M154.104,318.439c-0.189,0.03-0.387-0.05-0.498-0.221
											c-1.256-1.928-3.361-3.298-5.632-3.664c-0.273-0.044-0.458-0.301-0.414-0.573c0.044-0.273,0.3-0.459,0.573-0.414
											c2.545,0.41,4.904,1.945,6.311,4.105c0.151,0.232,0.085,0.541-0.146,0.692
											C154.237,318.404,154.171,318.428,154.104,318.439z"/>
									</g>
								</g>
								<g>
									<g>
										<path style="fill:#407BFF;" d="M168.633,361.188c-1.325-1.064-3.128-5.779-4.097-8.311
											c-0.231-0.606-0.429-1.122-0.581-1.493"/>
										<path style="fill:#407BFF;" d="M168.712,361.682c-0.135,0.021-0.277-0.012-0.392-0.104
											c-1.32-1.059-2.886-4.954-4.25-8.521c-0.23-0.603-0.426-1.115-0.577-1.482c-0.105-0.255,0.016-0.547,0.272-0.652
											c0.253-0.112,0.548,0.016,0.653,0.272c0.154,0.373,0.353,0.894,0.586,1.505c0.885,2.312,2.724,7.121,3.943,8.099
											c0.216,0.173,0.25,0.488,0.077,0.703C168.942,361.601,168.83,361.663,168.712,361.682z"/>
									</g>
								</g>
							</g>
							<g>
								<path style="fill:#407BFF;" d="M145.618,301.01c-0.256,0.041-0.505-0.123-0.565-0.379
									c-0.188-0.797-4.487-19.625,4.799-28.911c0.196-0.195,0.512-0.195,0.707,0c0.195,0.195,0.195,0.512,0,0.707
									c-8.891,8.891-4.577,27.785-4.533,27.975c0.063,0.268-0.104,0.538-0.372,0.601
									C145.642,301.006,145.63,301.008,145.618,301.01z"/>
							</g>
							<g>
								<path style="fill:#407BFF;" d="M153.094,342.265c-0.47,4.8,11.02,11.402,11.02,11.402s12.551-4.249,13.021-9.049
									c0.47-4.801-4.306-11.52-10.944-12.169C159.551,331.799,153.564,337.464,153.094,342.265z"/>
								<path style="fill:#407BFF;" d="M131.075,289.686c2.217,4.542,12.128,6.06,12.128,6.06s4.901-8.748,2.685-13.289
									c-2.216-4.542-8.392-8.782-12.482-6.786C129.315,277.668,128.859,285.144,131.075,289.686z"/>
								<path style="fill:#407BFF;" d="M158.507,300.069c-1.037,1.158-2.108,2.342-3.496,3.043c-1.388,0.7-3.186,0.814-4.42-0.131
									c-1.53-1.172-1.65-3.448-1.222-5.327c0.848-3.723,5.365-10.671,10.084-9.909
									C166.264,288.843,160.898,297.399,158.507,300.069z"/>
								<path style="fill:#407BFF;" d="M147.348,311.399c1.04,0.858,2.186,1.973,1.986,3.306c-0.177,1.183-1.425,1.964-2.62,2.026
									c-1.194,0.062-2.342-0.418-3.441-0.889c-2.55-1.092-7.79-3.406-5.492-7.046
									C140.168,305.014,145.156,309.591,147.348,311.399z"/>
								<path style="fill:#407BFF;" d="M157.153,264.298c0.977-0.09,2.075,0.351,2.432,1.264c0.417,1.068-0.303,2.225-1.052,3.092
									c-1.866,2.162-7.582,8.135-9.979,3.993C146.288,268.735,154.143,264.576,157.153,264.298z"/>
								<g>
									<path style="fill:#407BFF;" d="M141.88,252.187c1.401-0.151,2.67-0.93,4.065-1.125c1.396-0.195,3.151,0.6,3.121,2.009
										c-0.028,1.302-1.489,2.035-2.746,2.376c-2.144,0.582-4.365,0.879-6.587,0.882c-0.516,0.001-1.085-0.036-1.454-0.396
										c-0.725-0.706-0.064-1.987,0.824-2.472c0.888-0.484,1.978-0.607,2.738-1.275L141.88,252.187z"/>
								</g>
								<g>
									<path style="fill:#407BFF;" d="M130.389,264.393c-1.372,0.322-2.827,0.008-4.208,0.287
										c-1.381,0.279-2.774,1.611-2.278,2.93c0.458,1.219,2.08,1.426,3.379,1.331c2.216-0.163,4.41-0.619,6.507-1.353
										c0.487-0.171,1.012-0.393,1.241-0.855c0.45-0.906-0.598-1.896-1.597-2.059c-0.999-0.163-2.068,0.083-3.006-0.295
										L130.389,264.393z"/>
								</g>
							</g>
						</g>
						<g>
							<path style="fill:#407BFF;" d="M136.362,260.723c-0.012,0.002-0.024,0.003-0.036,0.004c-0.275,0.025-0.517-0.179-0.541-0.454
								c-0.241-2.734-0.946-5.284-1.48-5.351c-0.274-0.035-0.468-0.284-0.434-0.558c0.035-0.273,0.281-0.47,0.558-0.434
								c1.644,0.206,2.192,4.443,2.351,6.255C136.804,260.449,136.619,260.682,136.362,260.723z"/>
						</g>
						<g>
							<path style="fill:#407BFF;" d="M136.268,254.234c-1.216-1.7-2.519-3.473-4.422-4.338c-1.903-0.865-4.575-0.412-5.442,1.49
								c-0.969,2.126,0.955,4.662,3.223,5.225c2.268,0.563,4.628-0.229,6.83-1.012c-0.051-0.34-0.101-0.681-0.152-1.021
								L136.268,254.234z"/>
						</g>
					</g>
				</g>
			</g>
			<g>
				<g>
					<g>
						<path style="fill:#407BFF;" d="M315.302,414.666h20.92c3.12-4.57,5.85-10.05,7.08-16.22c0.58-2.88,0.8-5.75,0.75-8.55
							c-0.08-4.6-0.88-8.98-1.96-12.87c-2.53-9.19-6.66-15.64-6.66-15.64s-17.75,12.34-21.53,31.19
							C312.312,400.476,313.452,408.286,315.302,414.666z"/>
						<path style="opacity:0.2;enable-background:new    ;" d="M315.302,414.666h20.92c3.12-4.57,5.85-10.05,7.08-16.22
							c0.58-2.88,0.8-5.75,0.75-8.55c-0.08-4.6-0.88-8.98-1.96-12.87c-2.53-9.19-6.66-15.64-6.66-15.64s-17.75,12.34-21.53,31.19
							C312.312,400.476,313.452,408.286,315.302,414.666z"/>
					</g>
					<g>
						<g>
							<g>
								<g>
									<path style="fill:#407BFF;" d="M320.852,414.666h24.45c2.18-2.19,4.19-4.69,5.84-7.54c9.2-15.77,4.27-36.01,4.27-36.01
										s-6.23,1.66-13.32,5.91c-3.31,2-6.82,4.55-9.96,7.76c-2.14,2.16-4.08,4.62-5.72,7.41
										C322.142,399.546,320.922,407.876,320.852,414.666z"/>
								</g>
							</g>
						</g>
						<g style="opacity:0.2;">
							<g>
								<path style="fill:#FFFFFF;" d="M320.852,414.666h24.45c2.18-2.19,4.19-4.69,5.84-7.54c9.2-15.77,4.27-36.01,4.27-36.01
									s-6.23,1.66-13.32,5.91c-3.31,2-6.82,4.55-9.96,7.76c-2.14,2.16-4.08,4.62-5.72,7.41
									C322.142,399.546,320.922,407.876,320.852,414.666z"/>
							</g>
						</g>
					</g>
				</g>
			</g>
		</g>
	</g>
</g>
<g id="Lines">
	<g>
		<g>
			<path style="fill:#263238;" d="M250.27,306.402c-0.276,0-0.499-0.224-0.5-0.499l-0.24-156.325
				c-0.001-0.276,0.223-0.5,0.499-0.501c0.001,0,0.001,0,0.001,0c0.276,0,0.499,0.223,0.5,0.499l0.24,156.325
				c0.001,0.276-0.223,0.501-0.499,0.501C250.271,306.402,250.27,306.402,250.27,306.402z"/>
		</g>
		<g>
			<path style="fill:none;stroke:#263238;stroke-linecap:round;stroke-linejoin:round;stroke-miterlimit:10;" d="M250.031,149.577"
				/>
		</g>
		<g>
			<path style="fill:none;stroke:#263238;stroke-linecap:round;stroke-linejoin:round;stroke-miterlimit:10;" d="M250.024,144.994"
				/>
		</g>
		<g>
			<path style="fill:#263238;" d="M250.024,145.494c-0.276,0-0.499-0.223-0.5-0.499l-0.006-2.96c0-0.276,0.223-0.501,0.499-0.501
				c0.316-0.001,0.501,0.223,0.501,0.499l0.006,2.96c0.001,0.276-0.223,0.5-0.499,0.501
				C250.024,145.494,250.024,145.494,250.024,145.494z"/>
		</g>
		<g>
			<path style="fill:#263238;" d="M250.014,139.274c-0.276,0-0.5-0.223-0.5-0.499l-0.014-9.247c-0.001-0.276,0.223-0.5,0.499-0.501
				c0.001,0,0.001,0,0.001,0c0.276,0,0.499,0.223,0.5,0.499l0.014,9.247C250.515,139.05,250.291,139.274,250.014,139.274
				C250.015,139.274,250.014,139.274,250.014,139.274z"/>
		</g>
		<g>
			<path style="fill:#263238;" d="M250.27,306.402c-0.204,0-0.395-0.125-0.47-0.328L209.837,197
				c-0.095-0.259,0.038-0.546,0.297-0.641c0.259-0.095,0.547,0.038,0.641,0.297L250.74,305.73c0.095,0.259-0.038,0.546-0.298,0.642
				C250.386,306.393,250.328,306.402,250.27,306.402z"/>
		</g>
		<g>
			<path style="fill:#263238;" d="M210.306,197.328c-0.204,0-0.396-0.125-0.47-0.328l-1.896-5.176
				c-0.095-0.259,0.039-0.546,0.298-0.642c0.259-0.093,0.546,0.039,0.642,0.298l1.896,5.176c0.095,0.259-0.039,0.546-0.298,0.642
				C210.421,197.318,210.363,197.328,210.306,197.328z"/>
		</g>
		<g>
			<path style="fill:#263238;" d="M205.7,184.756c-0.204,0-0.395-0.126-0.469-0.328l-14.104-38.492
				c-0.095-0.259,0.038-0.546,0.297-0.641c0.259-0.096,0.547,0.038,0.641,0.297l14.104,38.492c0.095,0.259-0.038,0.546-0.297,0.641
				C205.815,184.746,205.757,184.756,205.7,184.756z"/>
		</g>
		<g>
			<path style="fill:#263238;" d="M250.271,306.402c-0.143,0-0.284-0.061-0.383-0.178l-91.525-108.539
				c-0.178-0.211-0.151-0.526,0.06-0.704c0.211-0.179,0.526-0.151,0.704,0.06l91.525,108.539c0.178,0.211,0.151,0.526-0.06,0.704
				C250.499,306.363,250.385,306.402,250.271,306.402z"/>
		</g>
		<g>
			<path style="fill:#263238;" d="M153.134,191.208c-0.143,0-0.284-0.061-0.383-0.178l-12.896-15.293
				c-0.178-0.211-0.151-0.526,0.06-0.705c0.212-0.178,0.526-0.15,0.705,0.06l12.896,15.293c0.178,0.211,0.151,0.526-0.06,0.705
				C153.362,191.17,153.248,191.208,153.134,191.208z"/>
		</g>
		<g>
			<path style="fill:#263238;" d="M319.389,224.03c-0.113,0-0.227-0.039-0.321-0.117c-0.211-0.177-0.239-0.493-0.062-0.704
				l40.373-48.114c0.177-0.211,0.492-0.239,0.704-0.061c0.211,0.177,0.239,0.493,0.061,0.704l-40.372,48.114
				C319.674,223.969,319.532,224.03,319.389,224.03z"/>
		</g>
		<g>
			<path style="fill:#263238;" d="M310.401,234.741c-0.113,0-0.227-0.038-0.321-0.117c-0.211-0.178-0.239-0.492-0.062-0.704
				l4.68-5.577c0.177-0.211,0.492-0.239,0.704-0.062c0.211,0.177,0.239,0.493,0.062,0.704l-4.68,5.577
				C310.686,234.681,310.544,234.741,310.401,234.741z"/>
		</g>
		<g>
			<path style="fill:#263238;" d="M250.27,306.402c-0.113,0-0.227-0.038-0.321-0.117c-0.211-0.178-0.239-0.492-0.062-0.704
				l56.103-66.859c0.177-0.212,0.492-0.239,0.704-0.061c0.211,0.178,0.239,0.492,0.062,0.704l-56.103,66.859
				C250.555,306.342,250.413,306.402,250.27,306.402z"/>
		</g>
		<g>
			<path style="fill:#263238;" d="M302.263,163.179c-0.057,0-0.114-0.01-0.17-0.03c-0.26-0.094-0.394-0.381-0.3-0.641l6.141-16.915
				c0.095-0.26,0.383-0.39,0.641-0.3c0.26,0.094,0.394,0.381,0.3,0.641l-6.141,16.915
				C302.659,163.053,302.467,163.179,302.263,163.179z"/>
		</g>
		<g>
			<path style="fill:#263238;" d="M250.27,306.402c-0.057,0-0.114-0.01-0.17-0.03c-0.26-0.094-0.394-0.381-0.3-0.641l49.714-136.947
				c0.095-0.26,0.382-0.392,0.641-0.3c0.26,0.094,0.394,0.381,0.3,0.641l-49.714,136.948
				C250.667,306.276,250.475,306.402,250.27,306.402z"/>
		</g>
	</g>
</g>
<g id="Clock">
	<g>
		<path style="fill:#263238;" d="M183.142,386.396c0,0,7.604-1.901,11.406,2.614c3.802,4.515,0,8.317,0,8.317l-13.675,17.506
			c-0.604,0.731-1.502,1.154-2.45,1.154h-4.124c-2.402,0-3.936-2.562-2.8-4.679L183.142,386.396z"/>
		<g>
			<g>
				<g>
					
						<ellipse transform="matrix(0.701 -0.7132 0.7132 0.701 -157.0321 280.475)" style="fill:#407BFF;" cx="255.968" cy="327.508" rx="89.344" ry="89.304"/>
				</g>
				<g style="opacity:0.6;">
					
						<ellipse transform="matrix(0.701 -0.7132 0.7132 0.701 -157.0321 280.475)" cx="255.968" cy="327.508" rx="89.344" ry="89.304"/>
				</g>
			</g>
			<g>
				<g>
					
						<ellipse transform="matrix(0.1487 -0.9889 0.9889 0.1487 -123.1527 511.9612)" style="fill:#407BFF;" cx="235.773" cy="327.508" rx="89.325" ry="89.324"/>
					<circle style="opacity:0.8;fill:#FFFFFF;" cx="234.689" cy="327.508" r="71.683"/>
				</g>
				<g>
					<polygon style="fill:#263238;" points="231.674,324.625 200.83,353.654 203.825,356.837 231.768,330.538 281.853,374.786 
						284.745,371.514 					"/>
				</g>
				<g>
					<g>
						<path style="fill:#407BFF;" d="M239.776,331.256c0,4.015-3.255,7.269-7.269,7.269s-7.269-3.254-7.269-7.269
							c0-4.014,3.255-7.268,7.269-7.268S239.776,327.242,239.776,331.256z"/>
					</g>
				</g>
			</g>
		</g>
		<path style="fill:#263238;" d="M315.826,386.396c0,0-7.604-1.901-11.406,2.614c-3.802,4.515,0,8.317,0,8.317l13.675,17.506
			c0.604,0.731,1.502,1.154,2.45,1.154h4.124c2.402,0,3.936-2.562,2.8-4.679L315.826,386.396z"/>
	</g>
</g>
<g id="Sport">
	<g>
		<g>
			<path style="fill:#407BFF;" d="M386.16,163.37c-1.144,0.844-2.226,1.416-3.169,1.803c-2.377,0.977-4.3,0.978-5.03,0.932
				c-2.28-0.623-4.479-1.691-6.469-3.22c-2.211-1.699-3.937-3.794-5.158-6.108c0.102,0.096,0.207,0.193,0.316,0.289
				c0.245,0.219,0.503,0.432,0.772,0.638c1.364,1.048,3.027,1.947,4.957,2.68c2.864,1.086,6.333,1.808,10.309,2.143
				C383.449,162.663,384.861,162.968,386.16,163.37z"/>
			<path style="fill:#407BFF;" d="M389.915,165.887c-2.766,1.008-5.741,1.355-8.668,1.005c0.756-0.147,1.617-0.386,2.547-0.764
				c1.32-0.537,2.588-1.278,3.786-2.215c0.871,0.318,1.595,0.678,1.885,1.054C389.743,165.327,389.87,165.635,389.915,165.887z"/>
			<path style="fill:#407BFF;" d="M396.569,161.649c-1.72,1.646-3.699,2.911-5.818,3.779c-0.082-0.336-0.254-0.707-0.559-1.101
				c-0.33-0.426-1.01-0.808-1.815-1.137c0.278-0.238,0.552-0.487,0.821-0.747c0.618-0.596,1.214-1.249,1.787-1.956
				C393.255,161.371,395.165,161.773,396.569,161.649z"/>
			<path style="fill:#407BFF;" d="M398.633,159.352c-0.344,0.448-0.705,0.877-1.081,1.285l-0.026-0.065
				c-0.939,0.366-2.465,0.25-4.409-0.335c-0.481-0.145-0.986-0.318-1.51-0.518c0.809-1.068,1.568-2.249,2.272-3.538
				c1.158,0.332,2.67,0.572,4.298-0.262c1.565-0.801,2.938-2.469,4.096-4.971C401.793,153.913,400.591,156.804,398.633,159.352z"/>
			<path style="fill:#407BFF;" d="M398.135,154.857c-1.333,0.682-2.562,0.536-3.613,0.251c0.131-0.251,0.259-0.507,0.385-0.767
				c1.773-3.641,2.823-7.148,3.12-10.426c0.239-2.634-0.005-5.127-0.727-7.407c-0.509-1.613-1.18-2.885-1.798-3.828
				c3.424,2.638,5.685,6.228,6.695,10.112c0.854,3.283,0.388,6.829-1.517,9.635C399.902,153.575,399.052,154.387,398.135,154.857z"
				/>
			<path style="fill:#407BFF;" d="M393.473,154.593c-1.681-0.809-3.229-3.307-3.796-4.887c-5.314-14.814-8.671-19.349-10.468-20.642
				c4.606-1.138,9.605-0.526,13.91,1.979c0.504,0.499,2.164,2.316,3.147,5.46c1.076,3.441,1.539,9.226-2.367,17.247
				C393.757,154.038,393.616,154.319,393.473,154.593z"/>
			<path style="fill:#407BFF;" d="M390.577,159.129c-1.341-0.552-2.789-1.26-4.283-2.099c-4.995-2.802-9.874-6.671-13.052-10.349
				c-3.331-3.855-4.648-6.442-5.167-7.933c-0.188-0.541-0.287-0.979-0.335-1.322c0.268-0.413,0.555-0.819,0.861-1.216
				c2.458-3.198,5.744-5.384,9.326-6.487c0.369,0.107,1.15,0.541,2.373,2.215c2.392,3.275,5.23,9.462,8.432,18.389
				c0.531,1.48,1.798,3.597,3.321,4.767c0.266,0.204,0.539,0.38,0.818,0.518C392.128,156.958,391.356,158.122,390.577,159.129z"/>
			<path style="fill:#407BFF;" d="M389.909,159.982c-0.902,1.089-1.809,1.975-2.689,2.697c-1.746-0.595-3.715-0.962-4.058-1.023
				l-0.035-0.004c-8.791-0.739-13.321-3.252-15.575-5.231c-0.879-0.772-1.488-1.524-1.907-2.17
				c-1.821-5.05-1.439-10.791,1.349-15.66c0.041,0.156,0.091,0.32,0.148,0.494c0.753,2.284,2.556,5.086,5.357,8.328
				c1.773,2.052,4.065,4.161,6.61,6.117c2.091,1.607,4.353,3.111,6.638,4.393C387.223,158.75,388.618,159.439,389.909,159.982z"/>
		</g>
		<g style="opacity:0.4;">
			<path style="opacity:0.7;fill:#FFFFFF;" d="M389.915,165.887c-2.766,1.008-5.741,1.355-8.668,1.005
				c0.756-0.147,1.617-0.386,2.547-0.764c1.32-0.537,2.588-1.278,3.786-2.215c0.871,0.318,1.595,0.678,1.885,1.054
				C389.743,165.327,389.87,165.635,389.915,165.887z"/>
			<path style="opacity:0.7;fill:#FFFFFF;" d="M396.569,161.649c-1.72,1.646-3.699,2.911-5.818,3.779
				c-0.082-0.336-0.254-0.707-0.559-1.101c-0.33-0.426-1.01-0.808-1.815-1.137c0.278-0.238,0.552-0.487,0.821-0.747
				c0.618-0.596,1.214-1.249,1.787-1.956C393.255,161.371,395.165,161.773,396.569,161.649z"/>
			<path style="opacity:0.7;fill:#FFFFFF;" d="M398.633,159.352c-0.344,0.448-0.705,0.877-1.081,1.285l-0.026-0.065
				c-0.939,0.366-2.465,0.25-4.409-0.335c-0.481-0.145-0.986-0.318-1.51-0.518c0.809-1.068,1.568-2.249,2.272-3.538
				c1.158,0.332,2.67,0.572,4.298-0.262c1.565-0.801,2.938-2.469,4.096-4.971C401.793,153.913,400.591,156.804,398.633,159.352z"/>
			<path style="fill:#FFFFFF;" d="M398.135,154.857c-1.333,0.682-2.562,0.536-3.613,0.251c0.131-0.251,0.259-0.507,0.385-0.767
				c1.773-3.641,2.823-7.148,3.12-10.426c0.239-2.634-0.005-5.127-0.727-7.407c-0.509-1.613-1.18-2.885-1.798-3.828
				c3.424,2.638,5.685,6.228,6.695,10.112c0.854,3.283,0.388,6.829-1.517,9.635C399.902,153.575,399.052,154.387,398.135,154.857z"
				/>
			<path style="opacity:0.7;fill:#FFFFFF;" d="M386.16,163.37c-1.144,0.844-2.226,1.416-3.169,1.803
				c-2.377,0.977-4.3,0.978-5.03,0.932c-2.28-0.623-4.479-1.691-6.469-3.22c-2.211-1.699-3.937-3.794-5.158-6.108
				c0.102,0.096,0.207,0.193,0.316,0.289c0.245,0.219,0.503,0.432,0.772,0.638c1.364,1.048,3.027,1.947,4.957,2.68
				c2.864,1.086,6.333,1.808,10.309,2.143C383.449,162.663,384.861,162.968,386.16,163.37z"/>
			<path style="fill:#FFFFFF;" d="M393.473,154.593c-1.681-0.809-3.229-3.307-3.796-4.887c-5.314-14.814-8.671-19.349-10.468-20.642
				c4.606-1.138,9.605-0.526,13.91,1.979c0.504,0.499,2.164,2.316,3.147,5.46c1.076,3.441,1.539,9.226-2.367,17.247
				C393.757,154.038,393.616,154.319,393.473,154.593z"/>
			<path style="fill:#FFFFFF;" d="M390.577,159.129c-1.341-0.552-2.789-1.26-4.283-2.099c-4.995-2.802-9.874-6.671-13.052-10.349
				c-3.331-3.855-4.648-6.442-5.167-7.933c-0.188-0.541-0.287-0.979-0.335-1.322c0.268-0.413,0.555-0.819,0.861-1.216
				c2.458-3.198,5.744-5.384,9.326-6.487c0.369,0.107,1.15,0.541,2.373,2.215c2.392,3.275,5.23,9.462,8.432,18.389
				c0.531,1.48,1.798,3.597,3.321,4.767c0.266,0.204,0.539,0.38,0.818,0.518C392.128,156.958,391.356,158.122,390.577,159.129z"/>
			<path style="fill:#FFFFFF;" d="M389.909,159.982c-0.902,1.089-1.809,1.975-2.689,2.697c-1.746-0.595-3.715-0.962-4.058-1.023
				l-0.035-0.004c-8.791-0.739-13.321-3.252-15.575-5.231c-0.879-0.772-1.488-1.524-1.907-2.17
				c-1.821-5.05-1.439-10.791,1.349-15.66c0.041,0.156,0.091,0.32,0.148,0.494c0.753,2.284,2.556,5.086,5.357,8.328
				c1.773,2.052,4.065,4.161,6.61,6.117c2.091,1.607,4.353,3.111,6.638,4.393C387.223,158.75,388.618,159.439,389.909,159.982z"/>
		</g>
	</g>
</g>
<g id="Love">
	<g>
		<g>
			<g>
				<g>
					<g>
						<g>
							<polygon style="fill:#407BFF;" points="319.761,125.041 310.982,132.244 310.402,131.665 319.273,124.335 							"/>
						</g>
					</g>
				</g>
			</g>
			<g>
				<g>
					<path style="fill:#407BFF;" d="M327.463,112.874c0.551-4.299-3.802-8.733-8.046-9.618c-4.243-0.885-10.141,2.66-11.296,6.837
						c-2.936,10.622,7.561,16.048,10.615,18.281c3.054,2.232,6.556,4.898,6.524,7.182c1.554-2.501,3.075-3.644,5.216-5.665
						c2.141-2.021,4.325-4.038,5.996-6.462c1.672-2.424,2.811-5.331,2.589-8.267c-0.222-2.936-1.982-5.943-4.783-6.85
						C328.486,106.436,327.463,112.874,327.463,112.874z"/>
				</g>
				<g style="opacity:0.5;">
					<path style="fill:#FFFFFF;" d="M327.463,112.874c0.551-4.299-3.802-8.733-8.046-9.618c-4.243-0.885-10.141,2.66-11.296,6.837
						c-2.936,10.622,7.561,16.048,10.615,18.281c3.054,2.232,6.556,4.898,6.524,7.182c1.554-2.501,3.075-3.644,5.216-5.665
						c2.141-2.021,4.325-4.038,5.996-6.462c1.672-2.424,2.811-5.331,2.589-8.267c-0.222-2.936-1.982-5.943-4.783-6.85
						C328.486,106.436,327.463,112.874,327.463,112.874z"/>
				</g>
			</g>
		</g>
		<g>
			<g>
				<g>
					<g>
						<polygon style="fill:#407BFF;" points="341.147,108.36 332.367,115.562 331.788,114.983 340.659,107.653 						"/>
					</g>
				</g>
			</g>
		</g>
		<polygon style="fill:#407BFF;" points="338.145,105.944 342.591,111.13 345.61,103.735 		"/>
	</g>
</g>
<g id="Money">
	<g>
		<g>
			<g>
				<g>
					<g>
						<path style="fill:#407BFF;" d="M238.287,116.373c-0.025,1.673,5.309,3.108,11.912,3.206
							c6.604,0.098,11.977-1.179,12.002-2.852c0.025-1.673-5.308-3.109-11.912-3.206
							C243.685,113.424,238.312,114.701,238.287,116.373z"/>
						
							<rect x="248.752" y="103.077" transform="matrix(0.0148 -0.9999 0.9999 0.0148 131.5425 363.574)" style="fill:#407BFF;" width="3.03" height="23.917"/>
					</g>
					<g>
						<path style="fill:#407BFF;" d="M238.332,113.344c-0.025,1.673,5.309,3.109,11.913,3.206
							c6.604,0.098,11.977-1.179,12.002-2.852c0.025-1.673-5.308-3.108-11.912-3.206
							C243.73,110.395,238.357,111.671,238.332,113.344z"/>
						<path style="opacity:0.4;fill:#FFFFFF;" d="M238.332,113.344c-0.025,1.673,5.309,3.109,11.913,3.206
							c6.604,0.098,11.977-1.179,12.002-2.852c0.025-1.673-5.308-3.108-11.912-3.206
							C243.73,110.395,238.357,111.671,238.332,113.344z"/>
					</g>
					<g>
						<path style="fill:#407BFF;" d="M239.854,113.25c-0.001,0.098,0.04,0.216,0.11,0.295c0.771-1.004,5.122-1.702,10.347-1.625
							c5.239,0.078,9.568,0.904,10.295,1.931c0.072-0.077,0.117-0.194,0.118-0.292c0.017-1.133-4.637-2.139-10.404-2.225
							C244.567,111.249,239.871,112.117,239.854,113.25z"/>
						<path style="opacity:0.4;fill:#407BFF;" d="M239.854,113.25c-0.001,0.098,0.04,0.216,0.11,0.295
							c0.771-1.004,5.122-1.702,10.347-1.625c5.239,0.078,9.568,0.904,10.295,1.931c0.072-0.077,0.117-0.194,0.118-0.292
							c0.017-1.133-4.637-2.139-10.404-2.225C244.567,111.249,239.871,112.117,239.854,113.25z"/>
					</g>
					<g>
						<path style="opacity:0.4;fill:#407BFF;" d="M239.964,113.545c0.741,1.027,5.07,1.853,10.294,1.93
							c5.239,0.077,9.59-0.62,10.347-1.624c-0.727-1.027-5.056-1.853-10.295-1.931C245.086,111.843,240.735,112.54,239.964,113.545z
							"/>
					</g>
				</g>
				<g>
					<g>
						<path style="fill:#407BFF;" d="M237.161,111.82c-0.025,1.673,5.309,3.108,11.912,3.206c6.604,0.098,11.977-1.179,12.002-2.852
							c0.025-1.673-5.308-3.109-11.912-3.206C242.559,108.87,237.186,110.147,237.161,111.82z"/>
						
							<rect x="247.626" y="98.524" transform="matrix(0.0148 -0.9999 0.9999 0.0148 134.9859 357.9618)" style="fill:#407BFF;" width="3.03" height="23.917"/>
					</g>
					<g>
						<path style="fill:#407BFF;" d="M237.206,108.791c-0.025,1.673,5.309,3.109,11.913,3.206
							c6.604,0.098,11.977-1.179,12.002-2.852c0.025-1.673-5.308-3.108-11.912-3.206
							C242.604,105.841,237.23,107.118,237.206,108.791z"/>
						<path style="opacity:0.4;fill:#FFFFFF;" d="M237.206,108.791c-0.025,1.673,5.309,3.109,11.913,3.206
							c6.604,0.098,11.977-1.179,12.002-2.852c0.025-1.673-5.308-3.108-11.912-3.206
							C242.604,105.841,237.23,107.118,237.206,108.791z"/>
					</g>
					<g>
						<path style="fill:#407BFF;" d="M238.728,108.697c-0.001,0.098,0.04,0.216,0.11,0.295c0.771-1.004,5.122-1.702,10.347-1.625
							c5.24,0.078,9.568,0.904,10.295,1.93c0.073-0.077,0.117-0.194,0.118-0.292c0.017-1.133-4.637-2.139-10.404-2.225
							C243.441,106.696,238.744,107.564,238.728,108.697z"/>
						<path style="opacity:0.4;fill:#407BFF;" d="M238.728,108.697c-0.001,0.098,0.04,0.216,0.11,0.295
							c0.771-1.004,5.122-1.702,10.347-1.625c5.24,0.078,9.568,0.904,10.295,1.93c0.073-0.077,0.117-0.194,0.118-0.292
							c0.017-1.133-4.637-2.139-10.404-2.225C243.441,106.696,238.744,107.564,238.728,108.697z"/>
					</g>
					<g>
						<path style="opacity:0.4;fill:#407BFF;" d="M238.838,108.992c0.741,1.027,5.07,1.853,10.294,1.93
							c5.239,0.077,9.59-0.62,10.347-1.625c-0.727-1.027-5.055-1.853-10.295-1.93C243.96,107.289,239.609,107.987,238.838,108.992z"
							/>
					</g>
				</g>
				<g>
					<g>
						<path style="fill:#407BFF;" d="M238.026,106.931c-0.025,1.673,5.309,3.108,11.912,3.206c6.604,0.098,11.977-1.18,12.002-2.852
							c0.025-1.673-5.308-3.108-11.912-3.206C243.424,103.981,238.051,105.258,238.026,106.931z"/>
						
							<rect x="248.491" y="93.635" transform="matrix(0.0148 -0.9999 0.9999 0.0148 140.7185 354.0063)" style="fill:#407BFF;" width="3.03" height="23.917"/>
					</g>
					<g>
						<path style="fill:#407BFF;" d="M238.071,103.902c-0.025,1.673,5.309,3.108,11.913,3.206
							c6.604,0.098,11.977-1.179,12.002-2.852c0.025-1.673-5.308-3.108-11.912-3.206
							C243.469,100.952,238.095,102.229,238.071,103.902z"/>
						<path style="opacity:0.4;fill:#FFFFFF;" d="M238.071,103.902c-0.025,1.673,5.309,3.108,11.913,3.206
							c6.604,0.098,11.977-1.179,12.002-2.852c0.025-1.673-5.308-3.108-11.912-3.206
							C243.469,100.952,238.095,102.229,238.071,103.902z"/>
					</g>
					<g>
						<path style="fill:#407BFF;" d="M239.593,103.808c-0.002,0.098,0.04,0.216,0.11,0.295c0.771-1.005,5.122-1.702,10.347-1.625
							c5.24,0.078,9.567,0.904,10.295,1.931c0.073-0.077,0.117-0.194,0.118-0.292c0.017-1.133-4.637-2.139-10.405-2.225
							C244.306,101.807,239.61,102.675,239.593,103.808z"/>
						<path style="opacity:0.4;fill:#407BFF;" d="M239.593,103.808c-0.002,0.098,0.04,0.216,0.11,0.295
							c0.771-1.005,5.122-1.702,10.347-1.625c5.24,0.078,9.567,0.904,10.295,1.931c0.073-0.077,0.117-0.194,0.118-0.292
							c0.017-1.133-4.637-2.139-10.405-2.225C244.306,101.807,239.61,102.675,239.593,103.808z"/>
					</g>
					<g>
						<path style="opacity:0.4;fill:#407BFF;" d="M239.703,104.102c0.742,1.027,5.07,1.853,10.294,1.93
							c5.239,0.077,9.59-0.62,10.347-1.624c-0.727-1.027-5.055-1.853-10.295-1.931C244.825,102.4,240.474,103.098,239.703,104.102z"
							/>
					</g>
				</g>
				<g>
					<g>
						<path style="fill:#407BFF;" d="M237.096,102.232c-0.025,1.673,5.309,3.108,11.912,3.206
							c6.604,0.098,11.977-1.179,12.002-2.852c0.025-1.673-5.308-3.109-11.912-3.206C242.494,99.282,237.12,100.559,237.096,102.232
							z"/>
						
							<rect x="247.56" y="88.936" transform="matrix(0.0148 -0.9999 0.9999 0.0148 144.509 348.4502)" style="fill:#407BFF;" width="3.03" height="23.917"/>
					</g>
					<g>
						<path style="fill:#407BFF;" d="M237.141,99.202c-0.025,1.673,5.309,3.109,11.912,3.206c6.604,0.098,11.977-1.179,12.002-2.852
							c0.025-1.673-5.308-3.108-11.912-3.206C242.539,96.253,237.165,97.53,237.141,99.202z"/>
						<path style="opacity:0.4;fill:#FFFFFF;" d="M237.141,99.202c-0.025,1.673,5.309,3.109,11.912,3.206
							c6.604,0.098,11.977-1.179,12.002-2.852c0.025-1.673-5.308-3.108-11.912-3.206C242.539,96.253,237.165,97.53,237.141,99.202z"
							/>
					</g>
					<g>
						<path style="fill:#407BFF;" d="M238.663,99.108c-0.002,0.098,0.04,0.216,0.11,0.295c0.771-1.004,5.122-1.702,10.347-1.625
							c5.24,0.078,9.568,0.904,10.295,1.93c0.072-0.077,0.117-0.194,0.118-0.292c0.017-1.133-4.637-2.139-10.404-2.225
							C243.376,97.108,238.679,97.976,238.663,99.108z"/>
						<path style="opacity:0.4;fill:#407BFF;" d="M238.663,99.108c-0.002,0.098,0.04,0.216,0.11,0.295
							c0.771-1.004,5.122-1.702,10.347-1.625c5.24,0.078,9.568,0.904,10.295,1.93c0.072-0.077,0.117-0.194,0.118-0.292
							c0.017-1.133-4.637-2.139-10.404-2.225C243.376,97.108,238.679,97.976,238.663,99.108z"/>
					</g>
					<g>
						<path style="opacity:0.4;fill:#407BFF;" d="M238.773,99.403c0.741,1.027,5.07,1.853,10.294,1.93
							c5.239,0.077,9.59-0.62,10.347-1.625c-0.727-1.027-5.055-1.853-10.295-1.93C243.895,97.701,239.544,98.399,238.773,99.403z"/>
					</g>
				</g>
			</g>
		</g>
		<g>
			<g>
				<path style="fill:#407BFF;" d="M239.424,91.551c0.137,4.958,5.162,8.841,11.224,8.673c6.061-0.168,10.864-4.323,10.727-9.28
					c-0.137-4.958-5.162-8.841-11.224-8.673C244.089,82.439,239.287,86.594,239.424,91.551z"/>
				<path style="fill:#407BFF;" d="M239.369,89.578c0.137,4.958,5.162,8.841,11.224,8.673c6.062-0.168,10.864-4.323,10.727-9.281
					c-0.137-4.958-5.162-8.841-11.224-8.673C244.035,80.465,239.232,84.62,239.369,89.578z"/>
				<path style="opacity:0.4;fill:#FFFFFF;" d="M239.369,89.578c0.137,4.958,5.162,8.841,11.224,8.673
					c6.062-0.168,10.864-4.323,10.727-9.281c-0.137-4.958-5.162-8.841-11.224-8.673C244.035,80.465,239.232,84.62,239.369,89.578z"
					/>
				<path style="fill:#407BFF;" d="M242.113,89.343c0.007,0.236,0.031,0.472,0.056,0.69c0.019,0.018,0.001,0.036,0.001,0.055
					c0.566,3.369,4.13,5.873,8.349,5.757c4.237-0.117,7.657-2.814,8.036-6.21c-0.001-0.018-0.019-0.036-0.001-0.054
					c0.012-0.219,0.024-0.456,0.017-0.692c-0.103-3.71-3.878-6.626-8.424-6.501C245.619,82.512,242.011,85.633,242.113,89.343z"/>
				<path style="opacity:0.3;fill:#FFFFFF;" d="M242.169,90.033c0.019,0.018,0.001,0.036,0.001,0.055
					c0.566,3.369,4.13,5.873,8.349,5.757c4.237-0.117,7.657-2.814,8.036-6.21c-0.001-0.018-0.019-0.036-0.001-0.054
					c-0.566-3.351-4.13-5.873-8.367-5.756C245.968,83.94,242.549,86.656,242.169,90.033z"/>
			</g>
			<g style="opacity:0.5;">
				<path style="fill:#FFFFFF;" d="M253.49,91.142c0.041,1.495-1.133,2.528-3.006,2.737l-0.213,1.244l-1.124,0.031l0.213-1.244
					c-1.071-0.071-2.024-0.382-2.609-0.794l0.714-1.414c0.608,0.422,1.369,0.682,2.146,0.739l0.33-1.91
					c-1.054-0.286-2.212-0.67-2.25-2.03c-0.041-1.495,1.156-2.54,3.063-2.728l0.213-1.243l1.124-0.031l-0.213,1.255
					c0.8,0.056,1.537,0.261,2.086,0.583l-0.647,1.413c-0.493-0.312-1.082-0.488-1.691-0.538l-0.339,1.989
					C252.33,89.476,253.454,89.85,253.49,91.142z M250.211,88.916l0.281-1.627c-0.637,0.142-0.987,0.499-0.986,0.927
					C249.516,88.564,249.802,88.758,250.211,88.916z M251.677,91.485c-0.009-0.326-0.273-0.521-0.671-0.656l-0.261,1.548
					C251.349,92.236,251.689,91.912,251.677,91.485z"/>
			</g>
		</g>
	</g>
</g>
<g id="Food">
	<g>
		<g>
			<g>
				<g>
					<polygon style="fill:#407BFF;" points="183.499,135.239 171.161,135.239 170.161,101.566 184.5,101.566 					"/>
					<polygon style="opacity:0.7;fill:#FFFFFF;" points="183.499,135.239 171.161,135.239 170.161,101.566 184.5,101.566 					"/>
				</g>
				<g>
					<polygon style="fill:#407BFF;" points="185.834,102.657 168.827,102.657 169.827,99.739 184.833,99.739 					"/>
				</g>
				<polygon style="fill:#407BFF;" points="183.907,121.53 184.167,112.772 170.493,112.772 170.754,121.53 				"/>
			</g>
			<path style="opacity:0.8;fill:#FFFFFF;" d="M180.16,117.151c0,1.563-1.267,2.83-2.83,2.83s-2.83-1.267-2.83-2.83
				c0-1.563,1.267-2.83,2.83-2.83S180.16,115.589,180.16,117.151z"/>
		</g>
		<g>
			<g>
				<path style="fill:#407BFF;" d="M205.008,120.235c-0.49-2.032-1.671-4.191-3.713-4.634c-2.2-0.478-4.22,1.221-5.832,2.793
					c-0.926-3.433-5.143-5.337-8.538-4.282c-3.395,1.055-5.716,4.494-6.067,8.032c-0.351,3.538,1.02,7.084,3.127,9.947
					c2.076,2.822,4.386,4.121,7.831,3.432c2.477-0.495,4.537,0.177,6.916-0.105C204.592,134.721,206.093,124.736,205.008,120.235z"
					/>
				<path style="fill:#263238;" d="M195.888,111.014c0.254,0.405,0.964-0.116,1.383-0.394c-0.654,1.658-0.6,5.493-1.079,7.195
					c-0.221,0.786-1.093,0.361-1.212,0.22C195.303,114.545,195.474,110.353,195.888,111.014z"/>
				<path style="fill:#407BFF;" d="M197.952,111.393c0.928-0.738,2.001-1.256,3.064-1.769c-0.184,1.256-0.416,2.554-1.133,3.594
					c-0.714,1.037-1.894,1.725-3.127,1.823C194.447,115.226,197.303,111.909,197.952,111.393z"/>
			</g>
			<g>
				<path style="fill:#FFFFFF;" d="M188.459,116.441c-0.58-0.396-1.517,0.046-1.583,0.746c-0.066,0.7,0.763,1.311,1.413,1.043
					c0.65-0.267,0.814-1.278,0.284-1.74L188.459,116.441z"/>
			</g>
			<path style="fill:#FFFFFF;" d="M185.704,130.452c0.111,0.13,0.239,0.265,0.407,0.297c0.32,0.059,0.583-0.307,0.561-0.632
				c-0.023-0.325-0.227-0.602-0.405-0.875c-1.166-1.792-1.36-4.176-0.501-6.133c0.218-0.497,0.501-0.97,0.636-1.496
				c0.321-1.245-0.688-2.414-1.876-1.688c-0.906,0.554-1.034,2.48-1.099,3.388C183.246,125.862,184.036,128.499,185.704,130.452z"/>
		</g>
	</g>
</g>
<g id="Books">
	<g>
		<g>
			<g>
				<g>
					<path style="fill:#407BFF;" d="M131.646,140.185v6.857c0.845,0,0.846,1.313,0,1.313c-2.613,0-5.228,0.018-7.843,0.033v-9.516
						c2.614,0,5.229,0,7.843,0C132.491,138.872,132.492,140.185,131.646,140.185z"/>
					<path style="opacity:0.3;fill:#FFFFFF;" d="M131.646,140.185v6.857c0.845,0,0.846,1.313,0,1.313
						c-2.613,0-5.228,0.018-7.843,0.033v-9.516c2.614,0,5.229,0,7.843,0C132.491,138.872,132.492,140.185,131.646,140.185z"/>
				</g>
				<rect x="125.553" y="140.195" style="fill:#407BFF;" width="6.093" height="6.847"/>
				<rect x="125.553" y="140.195" style="opacity:0.6;fill:#FFFFFF;" width="6.093" height="6.847"/>
			</g>
			<path style="fill:#407BFF;" d="M126.831,139.529H93.198c-1.452,0-2.629,1.829-2.629,4.085c0,2.256,1.177,4.085,2.629,4.085
				h33.633V139.529z"/>
			<path style="opacity:0.9;fill:#FFFFFF;" d="M126.831,139.529H93.198c-1.452,0-2.629,1.829-2.629,4.085
				c0,2.256,1.177,4.085,2.629,4.085h33.633V139.529z"/>
			<g>
				<g>
					<path style="fill:#407BFF;" d="M126.831,148.355c-6.915,0-26.353,0.125-33.267,0c-4.736-0.085-4.991-9.164-0.345-9.483
						c3.238-0.222,6.569,0,9.814,0c3.762,0,20.036,0,23.798,0c0.845,0,0.846,1.313,0,1.313c-6.554,0-25.62,0-32.174,0
						c-1.517,0-2.602,0.017-3.188,1.806c-0.507,1.549-0.347,4.708,1.729,5.05c0.224,0.037,0.487,0,0.712,0c3.574,0,7.147,0,10.721,0
						c3.23,0,18.971,0,22.201,0C127.676,147.042,127.678,148.355,126.831,148.355L126.831,148.355z"/>
				</g>
			</g>
			<g style="opacity:0.2;">
				<g>
					<path style="fill:#FFFFFF;" d="M126.831,148.355c-6.915,0-26.353,0.125-33.267,0c-4.736-0.085-4.991-9.164-0.345-9.483
						c3.238-0.222,6.569,0,9.814,0c3.762,0,20.036,0,23.798,0c0.845,0,0.846,1.313,0,1.313c-6.554,0-25.62,0-32.174,0
						c-1.517,0-2.602,0.017-3.188,1.806c-0.507,1.549-0.347,4.708,1.729,5.05c0.224,0.037,0.487,0,0.712,0c3.574,0,7.147,0,10.721,0
						c3.23,0,18.971,0,22.201,0C127.676,147.042,127.678,148.355,126.831,148.355L126.831,148.355z"/>
				</g>
			</g>
		</g>
		<g>
			<g>
				<g>
					<path style="fill:#407BFF;" d="M129.169,149.639v6.35c0.782,0,0.784,1.216,0,1.216c-2.42,0-4.842,0.016-7.264,0.031v-8.813
						c2.421,0,4.842,0,7.264,0C129.952,148.423,129.953,149.639,129.169,149.639z"/>
					<path style="opacity:0.3;fill:#FFFFFF;" d="M129.169,149.639v6.35c0.782,0,0.784,1.216,0,1.216
						c-2.42,0-4.842,0.016-7.264,0.031v-8.813c2.421,0,4.842,0,7.264,0C129.952,148.423,129.953,149.639,129.169,149.639z"/>
				</g>
				<rect x="123.527" y="149.648" style="fill:#407BFF;" width="5.643" height="6.341"/>
				<rect x="123.527" y="149.648" style="opacity:0.6;fill:#FFFFFF;" width="5.643" height="6.341"/>
			</g>
			<path style="fill:#407BFF;" d="M124.711,149.031H93.562c-1.345,0-2.435,1.694-2.435,3.783c0,2.089,1.09,3.783,2.435,3.783h31.148
				V149.031z"/>
			<path style="opacity:0.9;fill:#FFFFFF;" d="M124.711,149.031H93.562c-1.345,0-2.435,1.694-2.435,3.783
				c0,2.089,1.09,3.783,2.435,3.783h31.148V149.031z"/>
			<g>
				<g>
					<path style="fill:#407BFF;" d="M124.711,157.205c-6.404,0-24.406,0.116-30.809,0c-4.386-0.079-4.622-8.487-0.32-8.782
						c2.999-0.206,6.084,0,9.089,0c3.484,0,18.556,0,22.04,0c0.782,0,0.784,1.216,0,1.216c-6.07,0-23.727,0-29.797,0
						c-1.405,0-2.41,0.016-2.953,1.673c-0.47,1.434-0.322,4.36,1.601,4.677c0.207,0.034,0.451,0,0.659,0c3.31,0,6.619,0,9.929,0
						c2.991,0,17.569,0,20.561,0C125.493,155.989,125.494,157.205,124.711,157.205L124.711,157.205z"/>
				</g>
			</g>
		</g>
		<g>
			<g>
				<g>
					<path style="fill:#407BFF;" d="M133.56,158.741v7.557c0.931,0,0.933,1.447,0,1.447c-2.88,0-5.762,0.02-8.644,0.037v-10.488
						c2.882,0,5.763,0,8.644,0C134.491,157.294,134.493,158.741,133.56,158.741z"/>
					<path style="opacity:0.3;fill:#FFFFFF;" d="M133.56,158.741v7.557c0.931,0,0.933,1.447,0,1.447c-2.88,0-5.762,0.02-8.644,0.037
						v-10.488c2.882,0,5.763,0,8.644,0C134.491,157.294,134.493,158.741,133.56,158.741z"/>
				</g>
				<rect x="126.845" y="158.752" style="fill:#407BFF;" width="6.715" height="7.546"/>
				<rect x="126.845" y="158.752" style="opacity:0.6;fill:#FFFFFF;" width="6.715" height="7.546"/>
			</g>
			<path style="fill:#407BFF;" d="M128.254,158.018H91.186c-1.6,0-2.898,2.016-2.898,4.502c0,2.486,1.297,4.502,2.898,4.502h37.068
				V158.018z"/>
			<path style="opacity:0.9;fill:#FFFFFF;" d="M128.254,158.018H91.186c-1.6,0-2.898,2.016-2.898,4.502
				c0,2.486,1.297,4.502,2.898,4.502h37.068V158.018z"/>
			<g>
				<g>
					<path style="fill:#407BFF;" d="M128.254,167.745c-7.621,0-29.044,0.138-36.664,0c-5.22-0.094-5.5-10.1-0.38-10.451
						c3.569-0.245,7.24,0,10.816,0c4.146,0,22.082,0,26.229,0c0.931,0,0.933,1.447,0,1.447c-7.224,0-28.236,0-35.459,0
						c-1.672,0-2.868,0.019-3.514,1.991c-0.559,1.707-0.383,5.189,1.906,5.566c0.246,0.041,0.537,0,0.784,0
						c3.938,0,7.877,0,11.815,0c3.56,0,20.908,0,24.468,0C129.185,166.298,129.187,167.745,128.254,167.745L128.254,167.745z"/>
				</g>
			</g>
			<g style="opacity:0.2;">
				<g>
					<path d="M128.254,167.745c-7.621,0-29.044,0.138-36.664,0c-5.22-0.094-5.5-10.1-0.38-10.451c3.569-0.245,7.24,0,10.816,0
						c4.146,0,22.082,0,26.229,0c0.931,0,0.933,1.447,0,1.447c-7.224,0-28.236,0-35.459,0c-1.672,0-2.868,0.019-3.514,1.991
						c-0.559,1.707-0.383,5.189,1.906,5.566c0.246,0.041,0.537,0,0.784,0c3.938,0,7.877,0,11.815,0c3.56,0,20.908,0,24.468,0
						C129.185,166.298,129.187,167.745,128.254,167.745L128.254,167.745z"/>
				</g>
			</g>
		</g>
	</g>
</g>
<g id="Character">
	<g>
		<g>
			<g>
				<polygon style="fill:#EBB376;" points="196.826,299.946 194.16,316.024 186.419,316.04 187.427,299.085 				"/>
				<g>
					<path style="fill:#263238;" d="M183.465,316.504c-0.938,0.109-1.927,0.05-2.285-0.317c-0.188-0.217-0.219-0.529-0.077-0.779
						c0.102-0.222,0.286-0.396,0.514-0.484c1.219-0.493,4.026,0.704,4.149,0.758c0.07,0.03,0.113,0.1,0.108,0.176
						c-0.006,0.075-0.056,0.139-0.127,0.163C185.003,316.248,184.239,316.41,183.465,316.504z M182.095,315.175
						c-0.116,0.012-0.229,0.04-0.337,0.084c-0.146,0.043-0.264,0.15-0.321,0.291c-0.107,0.238-0.048,0.34,0.01,0.395
						c0.407,0.451,2.311,0.241,3.695-0.096C184.177,315.434,183.144,315.206,182.095,315.175z"/>
					<path style="fill:#263238;" d="M185.72,316.021c-0.024,0.01-0.051,0.011-0.075,0.002c-0.948-0.295-2.952-1.72-2.89-2.587
						c-0.005-0.207,0.119-0.474,0.606-0.58c0.355-0.08,0.727-0.011,1.03,0.19c1.053,0.678,1.491,2.689,1.512,2.783
						c0.012,0.064-0.011,0.129-0.061,0.171C185.805,316.022,185.762,316.03,185.72,316.021z M183.52,313.181l-0.104,0.003
						c-0.318,0.065-0.324,0.197-0.332,0.244c0.013,0.517,1.351,1.658,2.35,2.102c-0.189-0.845-0.632-1.612-1.271-2.196
						C183.974,313.207,183.745,313.152,183.52,313.181L183.52,313.181z"/>
					<path style="fill:#407BFF;" d="M186.395,314.875l8.235-0.958c0.31-0.036,0.604,0.148,0.708,0.443l2.268,6.526
						c0.205,0.578-0.096,1.212-0.674,1.417c-0.074,0.026-0.151,0.045-0.229,0.055c-2.975,0.294-5.633,0.438-9.328,0.873
						c-4.361,0.509-3.194,0.902-8.313,1.571c-3.085,0.4-4.059-3.046-2.769-3.371c5.908-1.452,6.32-3.335,8.383-5.75
						C185.131,315.211,185.743,314.924,186.395,314.875z"/>
				</g>
				<polygon style="opacity:0.1;" points="195.125,310.207 186.82,309.284 187.427,299.085 196.826,299.946 				"/>
				<path style="fill:#407BFF;" d="M239.657,216.647c0,0-48.768,1.448-50.732,14.858c-1.963,13.41-3.661,74.269-3.661,74.269
					l11.353,1.366c0,0,7.044-33.817,11.126-68.28c0,0,51.84,3.153,54.352-4.104c2.513-7.257,0.078-18.04,0.078-18.04
					L239.657,216.647z"/>
				<path style="opacity:0.3;enable-background:new    ;" d="M239.657,216.647c0,0-48.768,1.448-50.732,14.858
					c-1.963,13.41-3.661,74.269-3.661,74.269l11.353,1.366c0,0,7.044-33.817,11.126-68.28c0,0,51.84,3.153,54.352-4.104
					c2.513-7.257,0.078-18.04,0.078-18.04L239.657,216.647z"/>
				<g>
					<polygon style="fill:#407BFF;" points="197.753,308.6 183.852,306.999 183.918,302.013 198.758,303.378 					"/>
				</g>
				<path style="opacity:0.4;" d="M213.599,235.094c-0.014,0.122-0.029,0.243-0.044,0.365c-0.017-2.012,0.053-3.689,0.232-4.917
					c1.317-8.991,24.592-12.947,34.154-14.197l11.655,0.036c0,0,2.058,9.113-0.066,15.245
					C257.406,237.758,213.599,235.094,213.599,235.094z"/>
			</g>
			<g>
				<polygon style="fill:#EBB376;" points="224.261,300.359 224.496,318.076 216.758,318.289 214.848,299.663 				"/>
				<g>
					<path style="fill:#263238;" d="M213.098,317.714c-0.998-0.019-2.026-0.221-2.349-0.656c-0.166-0.254-0.154-0.585,0.03-0.827
						c0.138-0.218,0.356-0.374,0.607-0.434c1.348-0.343,4.118,1.309,4.24,1.383c0.069,0.041,0.104,0.121,0.088,0.2
						c-0.017,0.078-0.078,0.138-0.157,0.153C214.745,317.665,213.922,317.726,213.098,317.714z M211.85,316.128
						c-0.123-0.005-0.245,0.009-0.364,0.04c-0.159,0.024-0.298,0.12-0.378,0.259c-0.145,0.234-0.098,0.349-0.046,0.415
						c0.362,0.53,2.387,0.581,3.885,0.424C213.996,316.695,212.945,316.309,211.85,316.128z"/>
					<path style="fill:#263238;" d="M215.528,317.53c-0.027,0.007-0.055,0.004-0.079-0.009c-0.952-0.444-2.848-2.221-2.66-3.121
						c0.024-0.218,0.192-0.479,0.717-0.522c0.383-0.033,0.763,0.091,1.053,0.345c1.007,0.86,1.18,3.029,1.189,3.13
						c0.004,0.069-0.03,0.134-0.089,0.17C215.618,317.542,215.571,317.544,215.528,317.53z M213.627,314.241l-0.109-0.012
						c-0.343,0.023-0.367,0.16-0.383,0.208c-0.059,0.544,1.18,1.929,2.164,2.537c-0.078-0.912-0.434-1.778-1.019-2.482
						C214.1,314.333,213.868,314.243,213.627,314.241L213.627,314.241z"/>
					<path style="fill:#407BFF;" d="M216.399,316.424l8.764,0.166c0.33,0.006,0.612,0.24,0.678,0.564l1.449,7.16
						c0.133,0.635-0.273,1.256-0.907,1.39c-0.082,0.017-0.165,0.025-0.248,0.025c-3.158-0.115-5.964-0.341-9.898-0.41
						c-4.641-0.086-3.474,0.491-8.932,0.465c-3.289-0.019-3.82-3.767-2.423-3.925c6.396-0.682,7.095-2.596,9.599-4.834
						C215.027,316.597,215.708,316.383,216.399,316.424z"/>
				</g>
				<path style="fill:#263238;" d="M252.355,217.607c0,0-43.247,3.945-45.211,17.355c-1.964,13.41,7.1,72.042,7.1,72.042
					l11.318,0.463c0,0,1.348-39.828,0.4-65.15c0,0,46.354,1.559,48.866-5.698c2.513-7.257,0.043-18.943,0.043-18.943
					L252.355,217.607z"/>
				<path style="fill:#407BFF;" d="M252.355,217.607c0,0-43.247,3.945-45.211,17.355c-1.964,13.41,7.1,72.042,7.1,72.042
					l11.318,0.463c0,0,1.348-39.828,0.4-65.15c0,0,39.995,3.166,49.291-3.646c10.204-7.477-1.123-23.462-1.123-23.462
					L252.355,217.607z"/>
				<path style="opacity:0.2;enable-background:new    ;" d="M252.355,217.607c0,0-43.247,3.945-45.211,17.355
					c-1.964,13.41,7.1,72.042,7.1,72.042l11.318,0.463c0,0,1.348-39.828,0.4-65.15c0,0,39.995,3.166,49.291-3.646
					c10.204-7.477-1.123-23.462-1.123-23.462L252.355,217.607z"/>
				<polygon style="opacity:0.1;" points="216.007,310.607 215.574,306.384 224.342,306.808 224.392,310.788 				"/>
				<g>
					<polygon style="fill:#407BFF;" points="226.874,308.92 212.962,308.41 212.356,303.009 227.636,303.657 					"/>
				</g>
			</g>
		</g>
		<g>
			<g>
				<g>
					<g>
						<g>
							<g>
								<g>
									<g id="Character--inject-2_1_">
										<g>
											<path style="fill:#FF8B7B;" d="M254.089,172.915c-1.202,0.24-2.25,0.436-3.366,0.606
												c-1.116,0.17-2.177,0.318-3.317,0.456c-2.193,0.261-4.412,0.432-6.699,0.546c-4.71,0.294-9.438-0.051-14.055-1.027
												c-1.307-0.311-2.586-0.733-3.822-1.26c-1.393-0.587-2.69-1.378-3.849-2.348c-5.365-4.878-5.51-20.86-5.36-21.537
												l5.202,0.525c0,0,4.01,14.719,9.966,14.915c1.815,0.289,3.651,0.427,5.488,0.414c1.921,0.034,3.897-0.061,5.896-0.207
												c1.999-0.146,3.999-0.369,6.013-0.595l3.015-0.402c0.988-0.142,2.049-0.289,2.901-0.43L254.089,172.915z"/>
											<path style="fill:#FF8B7B;" d="M220.105,145.583l-0.737-3.823l-6.642,3.933c0,0,0.978,6.583,4.211,6.041l1.408-1.387
												C219.58,149.08,220.219,147.349,220.105,145.583z"/>
											<polygon style="fill:#FF8B7B;" points="216.933,138.221 210.301,139.811 212.742,145.718 219.384,141.785 											"/>
										</g>
										<path style="fill:#263238;" d="M262.289,172.637c3.624-6.097-0.679-11.577-10.305-11.871
											c-5.157-0.236-10.325-0.006-15.44,0.688l0.499,16.532C246.35,178.796,258.578,178.904,262.289,172.637z"/>
										<g>
											<g>
												<path style="fill:#263238;" d="M263.036,161.985l7.99,1.119l9.327,3.579c2.914,1.113,4.721,4.039,4.414,7.143
													c-0.596,6.091-7.44,47.368-7.44,47.368l0,0c-8.65,0.465-17.32-0.356-25.729-2.436l-8.49-2.1
													c3.121-22.862,4.259-41.694,6.115-49.156c0.739-3.009,3.395-5.156,6.492-5.247L263.036,161.985z"/>
											</g>
										</g>
										<path style="opacity:0.2;enable-background:new    ;" d="M282.413,170.306c-6.056-2.946-9.881,11.621-10.013,23.044
											c-0.038,3.306,3.957,3.062,5.414,2.614C282.581,194.498,289.005,177.197,282.413,170.306z"/>
										<g>
											<g>
												<path style="fill:#FF8B7B;" d="M295.607,244.025l-6.57,4.822l-0.01,0.01c0,0-8.544-4.777-6.761-7.587l2.152-0.689
													c1.896-0.542,4.037-0.521,6.298,0.567l3.833,2.256l1.047,0.611L295.607,244.025z"/>
												<path style="fill:#FF8B7B;" d="M297.287,249.491l-2.045,1.287c-0.452,0.293-1.021,0.328-1.507,0.121l-4.698-2.052
													l5.513-5.443l1.047,0.611l0.01,0.01l2.158,3.192C298.276,247.973,298.054,249,297.287,249.491z"/>
											</g>
											<g>
												<path style="fill:#FF8B7B;" d="M277.601,181.811c0.062,5.862,5.03,59.346,4.646,59.693l6.491,0.022
													c0,0-0.955-57.197-0.85-61.553C288.004,175.167,277.558,177.719,277.601,181.811z"/>
											</g>
										</g>
										<path style="fill:#263238;" d="M285.617,168.459c-6.006-3.799-9.988,0.739-10.571,10.315
											c-0.39,5.147-0.312,10.319,0.233,15.452l14.939-0.404C291.269,184.555,291.758,172.35,285.617,168.459z"/>
										<path style="fill:#407BFF;" d="M276.129,165.699c-0.155,1.43-1.024,2.706-2.113,3.646
											c-1.089,0.94-2.391,1.592-3.679,2.233c-1.635,0.815-3.543,1.642-5.219,0.914c-1.548-0.673-2.24-1.748-2.34-3.849
											c-2.016,1.824-2.397,2.913-3.951,2.619c-1.007-0.19-1.658-1.152-2.144-2.055c-0.858-1.595-1.197-2.468-0.924-4.259
											c0.444-2.915,3.473-4.868,6.412-5.096c3.155-0.244,5.761,0.228,8.821,0.734
											C273.549,161.011,276.456,162.678,276.129,165.699z"/>
										<path style="fill:#FF8B7B;" d="M273.292,150.287l-4.615,3.012l-6.277,4.103c0.27,0.704,0.411,1.452,0.415,2.207
											c0.059,1.678-0.524,3.155-2.504,3.804c-0.818,0.13-2.258,3.786,2.589,4.749c3.278,0.746,5.64,0.21,8.084-1.209
											c1.204-0.917,1.609-1.479,1.079-3.005C270.528,159.621,271.82,154.351,273.292,150.287z"/>
										<path style="opacity:0.2;enable-background:new    ;" d="M263.921,156.377l4.1-3.087c0.002,0.128,0.006,0.265,0.011,0.41
											c-0.017,0.596-0.081,1.189-0.19,1.775c-0.377,2.003-2.928,3.982-5.023,4.541l-0.025-0.432
											c-0.021-0.712-0.139-1.419-0.351-2.099c-0.015-0.039-0.037-0.076-0.064-0.108L263.921,156.377z"/>
										<path style="fill:#263238;" d="M261.879,146.137c-1.478-6.361-0.056-9.396-2.083-13.099
											c-1.328-1.039-4.634,1.059-4.074,6.186C256.282,144.352,261.879,146.137,261.879,146.137z"/>
										<path style="fill:#FF8B7B;" d="M275.079,143.079c-1.313,6.619-1.794,10.546-5.618,13.42
											c-5.782,4.351-13.565,0.004-14.221-6.907c-0.595-6.217,1.704-15.977,8.588-17.606c5.038-1.16,10.063,1.984,11.223,7.022
											C275.358,140.346,275.368,141.736,275.079,143.079z"/>
										<path style="fill:#263238;" d="M274.389,148.814l-3.616,0.285l0.537-4.907l-2.484-2.386l0.164-6.102
											c0,0,5.866-0.4,8.228-0.129c0.827,0.095,3.084,2.979,3.269,3.999c0.523,2.886-0.848,5.745-3.199,7.498
											C276.385,147.747,275.414,148.33,274.389,148.814z"/>
										<path style="fill:#FF8B7B;" d="M277.097,148.326c-0.547,1.405-1.591,2.561-2.933,3.249
											c-1.744,0.864-3.034-0.996-2.706-2.885c0.302-1.686,1.811-3.844,3.638-3.917
											C276.923,144.7,277.771,146.572,277.097,148.326z"/>
										<path style="fill:#263238;" d="M263.677,143.23c-0.053,0.557-0.389,0.997-0.759,0.97
											c-0.369-0.027-0.584-0.478-0.567-1.043c0.017-0.564,0.389-0.997,0.761-0.977
											C263.485,142.201,263.733,142.667,263.677,143.23z"/>
										<path style="fill:#263238;" d="M257.246,142.578c-0.049,0.566-0.392,1.003-0.761,0.976
											c-0.369-0.027-0.618-0.493-0.567-1.043c0.05-0.55,0.396-0.994,0.759-0.97
											C257.039,141.565,257.299,142.021,257.246,142.578z"/>
										<path style="fill:#FF5652;" d="M259.425,144.147c-0.806,1.372-1.79,2.631-2.925,3.746
											c0.709,0.891,2.196,0.714,2.196,0.714L259.425,144.147z"/>
										<path style="fill:#263238;" d="M260.419,151.26c1.311-0.13,2.512-0.792,3.321-1.832c0.053-0.075,0.036-0.178-0.038-0.232
											c-0.078-0.049-0.18-0.029-0.234,0.045c-0.897,1.119-2.265,1.757-3.699,1.726c-0.092-0.008-0.173,0.059-0.182,0.152
											c-0.008,0.092,0.059,0.173,0.152,0.182c0.008,0.001,0.015,0.001,0.023,0C259.982,151.301,260.202,151.288,260.419,151.26z
											"/>
										<path style="fill:#263238;" d="M265.901,142.021c0.056-0.002,0.11-0.019,0.157-0.05c0.151-0.103,0.191-0.308,0.091-0.461
											c-0.564-0.891-1.535-1.441-2.589-1.468c-0.181,0.001-0.326,0.149-0.325,0.33c0,0.004,0,0.008,0.001,0.013
											c0.009,0.182,0.162,0.324,0.345,0.318c0.824,0.037,1.579,0.474,2.02,1.171
											C265.664,141.977,265.781,142.035,265.901,142.021z"/>
										<path style="fill:#263238;" d="M258.439,139.895c0.035-0.045,0.058-0.097,0.067-0.153c0-0.183-0.147-0.333-0.33-0.335
											c-1.054-0.046-2.061,0.441-2.68,1.295c-0.099,0.152-0.057,0.355,0.095,0.454c0.152,0.099,0.355,0.057,0.454-0.095
											c0.499-0.66,1.292-1.032,2.119-0.993C258.28,140.062,258.384,139.997,258.439,139.895z"/>
										<path style="fill:#263238;" d="M255.475,127.775c-0.907,0.194-1.411,1.298-1.419,2.225
											c-0.008,0.927,0.548,1.837,1.378,2.251c3.481,1.737,6.445,3.898,12.565,4.159c0.776,0.033,1.545,0.117,2.319,0.055
											c2.495-0.202,4.989-0.405,7.484-0.607c0.797-1.108,0.875-2.902,0.258-4.12
											C275.785,127.244,265.206,125.693,255.475,127.775z"/>
									</g>
								</g>
							</g>
						</g>
					</g>
				</g>
			</g>
			<polygon style="fill:#F0F0F0;" points="217.697,157.793 217.732,157.818 217.775,157.813 217.738,157.795 			"/>
		</g>
	</g>
</g>
</svg>
